<svg width="356" height="101" viewBox="0 0 356 101" fill="none" xmlns="http://www.w3.org/2000/svg">
<path d="M321.32 100.395C315.432 100.395 309.766 99.5312 304.32 97.8047C298.875 96.0781 293.673 93.4219 288.715 89.8359V69.1836H298.875L301.066 84.3906C303.944 86.1615 307.065 87.5339 310.43 88.5078C313.794 89.4818 317.424 89.9688 321.32 89.9688C325.792 89.9688 329.555 89.2826 332.609 87.9102C338.94 85.1654 342.105 80.5169 342.105 73.9648C342.105 71.043 341.397 68.431 339.98 66.1289C338.564 63.8711 336.217 61.901 332.941 60.2188C329.71 58.4922 325.283 56.987 319.66 55.7031C313.197 54.1979 307.596 52.1172 302.859 49.4609C293.518 44.1927 288.848 36.8216 288.848 27.3477C288.848 22.2565 290.198 17.7409 292.898 13.8008C295.555 9.81641 299.273 6.67318 304.055 4.37109C308.836 2.06901 314.414 0.917969 320.789 0.917969C327.562 0.917969 333.539 1.95833 338.719 4.03906C343.943 6.07552 348.237 8.55469 351.602 11.4766V30.8008H341.441L339.25 16.9883C337.258 15.3945 334.779 14.0664 331.812 13.0039C328.846 11.9414 325.172 11.4102 320.789 11.4102C317.159 11.4102 313.883 12.0521 310.961 13.3359C308.128 14.6641 305.914 16.5013 304.32 18.8477C302.727 21.194 301.93 23.9609 301.93 27.1484C301.93 29.9375 302.66 32.3724 304.121 34.4531C306.777 38.3932 313.462 41.6914 324.176 44.3477C344.85 49.4831 355.188 59.3112 355.188 73.832C355.188 79.0117 353.793 83.5938 351.004 87.5781C348.215 91.6068 344.275 94.75 339.184 97.0078C334.137 99.2656 328.182 100.395 321.32 100.395Z" fill="#6F7C3E"/>
<path d="M240.836 12.207V88.7734L251.66 90.6328V99H216.93V90.6328L227.754 88.7734V12.207H205.84L203.914 25.6211H194.086V2.3125H274.438V25.6211H264.742L262.75 12.207H240.836Z" fill="#6F7C3E"/>
<path d="M145.543 100.395C139.301 100.395 133.701 99.1992 128.742 96.8086C123.784 94.418 119.578 91.0312 116.125 86.6484C108.953 77.7057 105.367 65.9518 105.367 51.3867V49.9922C105.367 35.4714 108.953 23.6953 116.125 14.6641C119.578 10.2812 123.784 6.89453 128.742 4.50391C133.701 2.11328 139.301 0.917969 145.543 0.917969C152.139 0.917969 157.939 2.11328 162.941 4.50391C167.988 6.89453 172.194 10.2812 175.559 14.6641C178.967 19.0469 181.513 24.2487 183.195 30.2695C184.922 36.2461 185.785 42.8203 185.785 49.9922V51.3867C185.785 58.6029 184.922 65.1992 183.195 71.1758C181.513 77.1523 178.967 82.3099 175.559 86.6484C172.194 91.0312 167.988 94.418 162.941 96.8086C157.939 99.1992 152.139 100.395 145.543 100.395ZM145.543 89.5039C151.962 89.5039 157.164 87.9102 161.148 84.7227C165.089 81.5352 167.988 77.0859 169.848 71.375C171.707 65.6198 172.637 58.957 172.637 51.3867V49.8594C172.637 42.3333 171.707 35.7148 169.848 30.0039C167.944 24.3372 165 19.9102 161.016 16.7227C157.031 13.4909 151.874 11.875 145.543 11.875C139.743 11.875 134.829 13.4909 130.801 16.7227C126.772 19.9544 123.717 24.4258 121.637 30.1367C119.556 35.8034 118.516 42.3776 118.516 49.8594V51.3867C118.516 58.8685 119.556 65.487 121.637 71.2422C123.717 76.9974 126.772 81.4909 130.801 84.7227C134.829 87.9102 139.743 89.5039 145.543 89.5039Z" fill="#6F7C3E"/>
<path d="M23.3555 23.3633V88.7734L35.2422 90.6328V99H0.511719V90.6328L11.3359 88.7734V12.6055L0.511719 10.7461V2.3125H24.5508L71.9648 77.6836L72.3633 77.5508V12.6055L60.4766 10.7461V2.3125H95.207V10.7461L84.3828 12.6055V99H72.4297L23.7539 23.2305L23.3555 23.3633Z" fill="#6F7C3E"/>
</svg>
