<svg width="25" height="25" viewBox="0 0 25 25" fill="none" xmlns="http://www.w3.org/2000/svg">
<path d="M18.4944 14.5835C19.7883 14.5835 20.837 15.6323 20.837 16.9261V17.5255C20.837 18.457 20.5041 19.3579 19.8984 20.0656C18.2636 21.9755 15.7769 22.918 12.5006 22.918C9.2236 22.918 6.73817 21.9752 5.10661 20.0644C4.50268 19.3573 4.1709 18.4578 4.1709 17.5278V16.9261C4.1709 15.6323 5.2197 14.5835 6.51347 14.5835H18.4944ZM18.4944 16.146H6.51347C6.08265 16.146 5.7334 16.4953 5.7334 16.9261V17.5278C5.7334 18.0858 5.93247 18.6255 6.29482 19.0498C7.60035 20.5786 9.64814 21.3555 12.5006 21.3555C15.353 21.3555 17.4026 20.5786 18.7113 19.0495C19.0748 18.6249 19.2745 18.0843 19.2745 17.5255V16.9261C19.2745 16.4953 18.9253 16.146 18.4944 16.146ZM12.5006 2.08838C15.377 2.08838 17.7089 4.42023 17.7089 7.29671C17.7089 10.1732 15.377 12.5051 12.5006 12.5051C9.62405 12.5051 7.2922 10.1732 7.2922 7.29671C7.2922 4.42023 9.62405 2.08838 12.5006 2.08838ZM12.5006 3.65088C10.487 3.65088 8.8547 5.28318 8.8547 7.29671C8.8547 9.31025 10.487 10.9426 12.5006 10.9426C14.5141 10.9426 16.1464 9.31025 16.1464 7.29671C16.1464 5.28318 14.5141 3.65088 12.5006 3.65088Z" fill="#999999"/>
</svg>
