<svg width="26" height="30" viewBox="0 0 26 30" fill="none" xmlns="http://www.w3.org/2000/svg">
<path d="M0.82343 12.9465C0.376913 13.4325 0.394965 14.2018 0.863723 14.6648C1.3325 15.1277 2.07447 15.1089 2.52099 14.623L11.8275 4.49354V28.3681C11.8275 29.0392 12.3523 29.5834 12.9997 29.5834C13.6471 29.5834 14.1719 29.0392 14.1719 28.3681V4.49297L23.4789 14.623C23.9255 15.1089 24.6675 15.1277 25.1363 14.6648C25.605 14.2018 25.6231 13.4325 25.1766 12.9465L14.1317 0.925143C13.88 0.65122 13.5589 0.489231 13.2252 0.439145C13.1522 0.424416 13.0769 0.416687 12.9997 0.416687C12.922 0.416687 12.8461 0.424513 12.7728 0.439469C12.4397 0.489895 12.1195 0.651787 11.8683 0.925143L0.82343 12.9465Z" fill="white"/>
</svg>
