<svg width="30" height="33" viewBox="0 0 30 33" fill="none" xmlns="http://www.w3.org/2000/svg">
<circle cx="15" cy="17.5621" r="15" fill="#FF7111"/>
<ellipse cx="8.33431" cy="9.14423" rx="2.51795" ry="8.34985" transform="rotate(-3.06649 8.33431 9.14423)" fill="#F2F2F2"/>
<path d="M10.7638 9.36692C10.8247 11.6485 10.225 13.5155 9.42432 13.5368C8.62365 13.5582 7.92519 11.7259 7.86428 9.44432C7.80337 7.16271 8.40307 5.29578 9.20374 5.2744C10.0044 5.25303 10.7029 7.08531 10.7638 9.36692Z" fill="black"/>
<ellipse cx="19.5685" cy="8.59298" rx="2.52155" ry="8.36179" transform="rotate(-6.48142 19.5685 8.59298)" fill="#F2F2F2"/>
<path d="M22.1367 9.36244C22.3096 11.6416 21.8014 13.5384 21.0016 13.5991C20.2018 13.6597 19.4132 11.8613 19.2403 9.58218C19.0674 7.30304 19.5756 5.40624 20.3754 5.34557C21.1752 5.28489 21.9638 7.0833 22.1367 9.36244Z" fill="black"/>
</svg>
