<svg width="25" height="25" viewBox="0 0 25 25" fill="none" xmlns="http://www.w3.org/2000/svg">
<path d="M12.4167 2.08337C18.1696 2.08337 22.8333 6.74707 22.8333 12.5C22.8333 18.253 18.1696 22.9167 12.4167 22.9167C10.7309 22.9167 9.1019 22.5152 7.6384 21.7584L3.65317 22.8701C2.96054 23.0636 2.24227 22.6589 2.04886 21.9663C1.98485 21.7371 1.98489 21.4947 2.04891 21.2658L3.16105 17.2836C2.40247 15.8188 2 14.1879 2 12.5C2 6.74707 6.6637 2.08337 12.4167 2.08337ZM12.4167 3.64587C7.52665 3.64587 3.5625 7.61002 3.5625 12.5C3.5625 14.0309 3.9508 15.5036 4.68024 16.8099L4.83717 17.0909L3.67808 21.2411L7.83078 20.0825L8.11155 20.2391C9.41673 20.9668 10.8877 21.3542 12.4167 21.3542C17.3067 21.3542 21.2708 17.39 21.2708 12.5C21.2708 7.61002 17.3067 3.64587 12.4167 3.64587Z" fill="#999999"/>
</svg>
