<svg width="25" height="25" viewBox="0 0 25 25" fill="none" xmlns="http://www.w3.org/2000/svg">
<path d="M7.8125 2.86462C7.8125 2.43316 7.46272 2.08337 7.03125 2.08337C6.59978 2.08337 6.25 2.43316 6.25 2.86462V5.98962C6.25 6.92346 6.95218 7.69329 7.85734 7.79993L6.79929 10.4093C6.37441 11.4571 6.42051 12.6826 6.92244 13.6829L11.0785 21.9653C11.3743 22.5546 11.9152 22.9167 12.5 22.9167C13.0848 22.9167 13.6257 22.5546 13.9215 21.9653L18.0776 13.6829C18.5795 12.6826 18.6256 11.4571 18.2007 10.4093L17.1426 7.79993C18.0478 7.69329 18.75 6.92346 18.75 5.98962V2.86462C18.75 2.43316 18.4002 2.08337 17.9688 2.08337C17.5373 2.08337 17.1875 2.43316 17.1875 2.86462V5.98962C17.1875 6.13345 17.0709 6.25004 16.9271 6.25004H8.07292C7.92909 6.25004 7.8125 6.13345 7.8125 5.98962V2.86462ZM15.4617 7.81254L16.7527 10.9965C17.0106 11.6325 16.9789 12.3885 16.681 12.9821L13.2812 19.7572V12.8118C13.7483 12.5417 14.0625 12.0367 14.0625 11.4584C14.0625 10.5955 13.3629 9.89587 12.5 9.89587C11.6371 9.89587 10.9375 10.5955 10.9375 11.4584C10.9375 12.0367 11.2517 12.5417 11.7188 12.8118V19.7572L8.31898 12.9821C8.0211 12.3885 7.98936 11.6325 8.24728 10.9965L9.53829 7.81254H15.4617Z" fill="#999999"/>
</svg>
