<svg width="106" height="39" viewBox="0 0 106 39" fill="none" xmlns="http://www.w3.org/2000/svg">
<g clip-path="url(#clip0_369_3386)">
<path d="M53.9663 11.245C53.9602 11.4299 53.8826 11.6051 53.7499 11.7337C53.6172 11.8623 53.4399 11.9341 53.2553 11.934H45.93C45.45 11.934 45.0491 11.544 45.0491 11.0695C45.0491 8.9284 44.3095 7.8858 42.7968 7.8858C41.284 7.8858 40.3083 8.8166 40.2798 10.4429C40.2473 12.2564 41.271 13.9048 44.185 16.7362C48.0215 20.3424 49.5589 23.5365 49.485 27.7589C49.3643 34.5865 44.7312 39 37.681 39C34.0807 39 31.3301 38.0354 29.5008 36.1322C27.6442 34.1991 26.7931 31.3625 26.9708 27.7017C26.9769 27.5166 27.0546 27.3412 27.1876 27.2126C27.3206 27.0839 27.4983 27.0123 27.6831 27.0127H35.26C35.3656 27.0144 35.4694 27.0395 35.5641 27.0863C35.6588 27.133 35.7419 27.2003 35.8075 27.2831C35.8648 27.3516 35.9067 27.4316 35.9304 27.5177C35.9542 27.6038 35.9591 27.6941 35.9451 27.7823C35.8607 29.1031 36.0904 30.0898 36.6093 30.6358C36.9415 30.9894 37.4047 31.1688 37.982 31.1688C39.3819 31.1688 40.2019 30.1782 40.233 28.4518C40.259 26.9594 39.788 25.6516 37.2217 23.0061C33.9068 19.7613 30.9344 16.4086 31.0265 11.1371C31.081 8.0795 32.2928 5.2832 34.4401 3.263C36.7105 1.1284 39.8153 0 43.4195 0C47.0302 0.0259993 49.7665 1.0582 51.5531 3.068C53.2449 4.9725 54.0584 7.7233 53.9689 11.245H53.9663Z" fill="#00E559"/>
<path d="M76.6712 37.7156L76.7192 1.4027C76.7206 1.31176 76.7038 1.22146 76.6699 1.13711C76.6359 1.05276 76.5855 0.976051 76.5216 0.911499C76.4576 0.846947 76.3815 0.795851 76.2975 0.761213C76.2136 0.726575 76.1236 0.709095 76.0328 0.709798H64.696C64.3145 0.709798 64.1472 1.0387 64.0382 1.2558L47.6232 37.4933V37.4998L47.6167 37.5089C47.4351 37.9548 47.7802 38.4319 48.2615 38.4319H56.1862C56.6143 38.4319 56.8985 38.3019 57.0373 38.0315L58.6111 34.242C58.8044 33.7363 58.8407 33.6895 59.3908 33.6895H66.9626C67.4893 33.6895 67.4997 33.6999 67.4919 34.216L67.322 37.739C67.3206 37.8298 67.3373 37.92 67.3711 38.0043C67.405 38.0885 67.4553 38.1652 67.5191 38.2297C67.5829 38.2943 67.6589 38.3454 67.7427 38.3801C67.8265 38.4148 67.9163 38.4324 68.007 38.4319H76.0134C76.1125 38.4331 76.2107 38.4126 76.301 38.3717C76.3913 38.3308 76.4716 38.2706 76.5362 38.1953C76.592 38.1299 76.6329 38.0531 76.6562 37.9703C76.6795 37.8875 76.6846 37.8006 76.6712 37.7156ZM62.646 25.5918C62.5863 25.5921 62.5266 25.5899 62.467 25.5853C62.4392 25.583 62.4123 25.5746 62.3881 25.5608C62.3639 25.5469 62.3431 25.5279 62.327 25.5051C62.3109 25.4823 62.3 25.4563 62.2951 25.4288C62.2901 25.4013 62.2912 25.3731 62.2983 25.3461C62.3139 25.2941 62.336 25.2226 62.3684 25.1355L68.0459 11.0591C68.0969 10.9202 68.1559 10.7844 68.2224 10.6522C68.3145 10.4624 68.4261 10.4494 68.4611 10.5898C68.4909 10.7068 67.8098 25.0432 67.8098 25.0432C67.7566 25.5801 67.7319 25.6022 67.2039 25.6464L62.6512 25.5944H62.6409L62.6447 25.5918L62.646 25.5918Z" fill="#00E559"/>
<path d="M92.8215 0.709772H86.8028C86.4849 0.709772 86.1281 0.878772 86.0451 1.25837L77.6689 37.6974C77.6506 37.7795 77.6514 37.8648 77.6712 37.9466C77.691 38.0284 77.7293 38.1046 77.7831 38.1693C77.8529 38.2516 77.9398 38.3178 78.0377 38.3631C78.1356 38.4085 78.2422 38.4319 78.3501 38.4319H85.8725C86.2773 38.4319 86.5537 38.233 86.6289 37.8885L87.5423 33.7584C87.6072 33.436 87.4956 33.1864 87.2076 33.0356C87.0724 32.9658 86.9375 32.8956 86.8028 32.825L85.4989 32.1451L84.2014 31.4665L83.6993 31.2052C83.6585 31.1848 83.6242 31.1532 83.6006 31.1141C83.5769 31.0749 83.5648 31.0299 83.5657 30.9842C83.5674 30.9165 83.5955 30.8521 83.644 30.805C83.6926 30.7578 83.7576 30.7316 83.8252 30.732L87.9471 30.7502C89.1796 30.7567 90.4135 30.6696 91.6266 30.446C100.164 28.8665 105.833 22.0155 105.997 12.6932C106.137 4.73717 101.705 0.705872 92.828 0.705872L92.8215 0.709772ZM90.7729 22.3938H90.612C90.25 22.3938 90.1864 22.3548 90.1761 22.3418C90.1696 22.3327 92.5529 11.8469 92.5542 11.8326C92.6152 11.5297 92.6126 11.3555 92.4258 11.2528C92.1871 11.1202 88.7074 9.28197 88.7074 9.28197C88.6669 9.26065 88.6332 9.22841 88.61 9.1889C88.5869 9.14939 88.5752 9.10418 88.5764 9.05837C88.578 8.99158 88.6057 8.9281 88.6535 8.88147C88.7012 8.83484 88.7653 8.80875 88.8319 8.80877H94.3343C96.0469 8.86077 97.0018 10.3961 96.9564 13.0182C96.8773 17.5565 94.7235 22.2352 90.7729 22.3951V22.3938Z" fill="#00E559"/>
<path d="M30.8921 18.304V18.3209L29.4973 24.3867C29.4221 24.7299 29.0796 24.9808 28.6852 24.9808H26.9998C26.9391 24.9811 26.88 25.0009 26.8314 25.0375C26.7828 25.074 26.7472 25.1252 26.7299 25.1836C25.1756 30.4668 23.0712 34.0977 20.2921 36.2778C17.9282 38.1342 15.0142 39 11.1207 39C7.62281 39 5.2641 37.8729 3.26347 35.6473C0.619325 32.7067 -0.473104 27.8915 0.188581 22.0909C1.38221 11.2008 7.01951 0.211889 17.8737 0.211889C21.1757 0.183289 23.7679 1.20379 25.5713 3.24089C27.4786 5.39629 28.4464 8.64109 28.4516 12.8895C28.4469 13.0757 28.3698 13.2527 28.2368 13.3829C28.1037 13.513 27.9253 13.586 27.7393 13.5863H19.7861C19.6468 13.582 19.5144 13.5244 19.4161 13.4252C19.3179 13.3261 19.2613 13.193 19.2581 13.0533C19.1932 10.1153 18.3239 8.68529 16.5958 8.68529C13.5468 8.68529 11.7486 12.8323 10.795 15.1307C9.46255 18.3417 8.784 21.8296 8.91764 25.3032C8.98121 26.9204 9.24069 29.1941 10.7729 30.1366C12.1313 30.9712 14.0697 30.4174 15.2439 29.4931C16.4167 28.5675 17.3613 26.9672 17.7583 25.5073C17.8141 25.3045 17.8179 25.1472 17.7648 25.077C17.709 25.0042 17.5546 24.9873 17.4365 24.9873H15.3944C15.2863 24.9876 15.1794 24.9643 15.0813 24.9189C14.9831 24.8736 14.896 24.8073 14.8261 24.7247C14.7724 24.6602 14.7343 24.5842 14.7148 24.5026C14.6952 24.421 14.6947 24.3359 14.7132 24.2541L16.1092 18.1779C16.178 17.8672 16.4595 17.6319 16.806 17.5903V17.5747H30.2083C30.2395 17.5747 30.2719 17.5747 30.3017 17.5812C30.6495 17.6267 30.8947 17.9504 30.8882 18.304H30.8921Z" fill="#00E559"/>
</g>
<defs>
<clipPath id="clip0_369_3386">
<rect width="106" height="39" fill="white"/>
</clipPath>
</defs>
</svg>
