<svg width="56" height="56" viewBox="0 0 56 56" fill="none" xmlns="http://www.w3.org/2000/svg">
<path d="M41.5576 5.05423C41.9717 3.60309 44.0283 3.60309 44.4424 5.05423L45.0843 7.30327C45.3064 8.08171 46.1062 8.54344 46.8914 8.34662L49.16 7.77795C50.6238 7.41103 51.6521 9.19206 50.6024 10.2763L48.9756 11.9567C48.4126 12.5383 48.4126 13.4617 48.9756 14.0433L50.6024 15.7237C51.6521 16.8079 50.6238 18.589 49.16 18.222L46.8914 17.6534C46.1062 17.4566 45.3064 17.9183 45.0843 18.6967L44.4424 20.9458C44.0283 22.3969 41.9717 22.3969 41.5576 20.9458L40.9157 18.6967C40.6936 17.9183 39.8938 17.4566 39.1086 17.6534L36.84 18.222C35.3762 18.589 34.3479 16.8079 35.3976 15.7237L37.0244 14.0433C37.5874 13.4617 37.5874 12.5383 37.0244 11.9567L35.3976 10.2763C34.3479 9.19206 35.3762 7.41103 36.84 7.77795L39.1086 8.34662C39.8938 8.54344 40.6936 8.08171 40.9157 7.30328L41.5576 5.05423Z" fill="#2A79EF"/>
<path d="M31.25 13L1.25 13" stroke="#2A79EF" stroke-width="1.5" stroke-linecap="round"/>
<path d="M43 55.25L43 25.25" stroke="#2A79EF" stroke-width="1.5" stroke-linecap="round"/>
</svg>
