<svg width="25" height="25" viewBox="0 0 25 25" fill="none" xmlns="http://www.w3.org/2000/svg">
<path d="M10.9891 2.63734C11.8619 1.90132 13.1381 1.90132 14.0109 2.63735L21.0422 8.56662C21.5702 9.01196 21.875 9.66756 21.875 10.3584V20.0561C21.875 21.0629 21.0589 21.879 20.0521 21.879H16.4062C15.3995 21.879 14.5833 21.0629 14.5833 20.0561V14.8404C14.5833 14.6966 14.4668 14.58 14.3229 14.58H10.6771C10.5332 14.58 10.4167 14.6966 10.4167 14.8404V20.0561C10.4167 21.0629 9.60052 21.879 8.59375 21.879H4.94792C3.94115 21.879 3.125 21.0629 3.125 20.0561V10.3584C3.125 9.66756 3.42974 9.01196 3.95783 8.56662L10.9891 2.63734ZM13.0036 3.83183C12.7127 3.58649 12.2873 3.58649 11.9964 3.83183L4.96511 9.76111C4.78908 9.90955 4.6875 10.1281 4.6875 10.3584V20.0561C4.6875 20.2 4.80409 20.3165 4.94792 20.3165H8.59375C8.73757 20.3165 8.85416 20.2 8.85416 20.0561V14.8404C8.85416 13.8336 9.67031 13.0175 10.6771 13.0175H14.3229C15.3297 13.0175 16.1458 13.8336 16.1458 14.8404V20.0561C16.1458 20.2 16.2624 20.3165 16.4062 20.3165H20.0521C20.1959 20.3165 20.3125 20.2 20.3125 20.0561V10.3584C20.3125 10.1281 20.2109 9.90955 20.0349 9.76111L13.0036 3.83183Z" fill="#999999"/>
</svg>
