<svg width="25" height="25" viewBox="0 0 25 25" fill="none" xmlns="http://www.w3.org/2000/svg">
<path d="M5.5 11C5.5 7.96243 7.96243 5.5 11 5.5C14.0376 5.5 16.5 7.96243 16.5 11C16.5 14.0376 14.0376 16.5 11 16.5C7.96243 16.5 5.5 14.0376 5.5 11ZM11 4C7.13401 4 4 7.13401 4 11C4 14.866 7.13401 18 11 18C12.6628 18 14.1902 17.4202 15.3911 16.4518L20.7197 21.7803C21.0126 22.0732 21.4874 22.0732 21.7803 21.7803C22.0732 21.4874 22.0732 21.0126 21.7803 20.7197L16.4518 15.3911C17.4202 14.1902 18 12.6628 18 11C18 7.13401 14.866 4 11 4Z" fill="#999999"/>
</svg>
