<svg width="25" height="25" viewBox="0 0 25 25" fill="none" xmlns="http://www.w3.org/2000/svg">
<path d="M3.646 3.125C2.78305 3.125 2.0835 3.82455 2.0835 4.6875C2.0835 5.36782 2.51829 5.94659 3.12516 6.16109V13.8021C3.12516 15.9595 4.87405 17.7083 7.03141 17.7083H11.7189V20.3125H8.07308C7.64161 20.3125 7.29183 20.6623 7.29183 21.0938C7.29183 21.5252 7.64161 21.875 8.07308 21.875H16.9272C17.3587 21.875 17.7085 21.5252 17.7085 21.0938C17.7085 20.6623 17.3587 20.3125 16.9272 20.3125H13.2814V17.7083H17.9689C20.1263 17.7083 21.8752 15.9595 21.8752 13.8021V6.16109C22.482 5.94659 22.9168 5.36782 22.9168 4.6875C22.9168 3.82455 22.2172 3.125 21.3543 3.125H3.646ZM4.68766 6.25H20.3127V13.8021C20.3127 15.0965 19.2633 16.1458 17.9689 16.1458H7.03141C5.737 16.1458 4.68766 15.0965 4.68766 13.8021V6.25Z" fill="#999999"/>
</svg>
