<svg width="26" height="26" viewBox="0 0 26 26" fill="none" xmlns="http://www.w3.org/2000/svg">
<path fill-rule="evenodd" clip-rule="evenodd" d="M15.0952 0.725112C13.8849 -0.241702 12.1151 -0.241702 10.9048 0.725098L1.15486 8.51351C0.422572 9.09847 0 9.95964 0 10.867V23.6055C0 24.928 1.13172 26 2.52778 26H7.58333C8.97939 26 10.1111 24.928 10.1111 23.6055V16.7544C10.1111 16.5656 10.2727 16.4123 10.4722 16.4123H15.5278C15.7273 16.4123 15.8889 16.5656 15.8889 16.7544V23.6055C15.8889 24.928 17.0206 26 18.4167 26H23.4722C24.8683 26 26 24.928 26 23.6055V10.867C26 9.95964 25.5774 9.09847 24.8452 8.51351L15.0952 0.725112Z" fill="white"/>
</svg>
