<svg width="25" height="25" viewBox="0 0 25 25" fill="none" xmlns="http://www.w3.org/2000/svg">
<path d="M21.9519 3.04809C20.5543 1.65058 18.2885 1.65064 16.8911 3.04824L4.94103 14.9997C4.5347 15.4061 4.2491 15.9172 4.116 16.4763L3.02041 21.0777C2.96009 21.3311 3.03552 21.5976 3.21968 21.7818C3.40385 21.9659 3.67037 22.0414 3.92373 21.981L8.52498 20.8855C9.08418 20.7524 9.59546 20.4666 10.0019 20.0601L19.9995 10.0614C20.6777 10.7452 20.676 11.8494 19.9943 12.5311L18.2109 14.3145C17.918 14.6074 17.918 15.0822 18.2109 15.3751C18.5038 15.668 18.9786 15.668 19.2715 15.3751L21.055 13.5917C22.3224 12.3243 22.3242 10.2703 21.0601 9.00065L21.952 8.1086C23.3493 6.71112 23.3493 4.44551 21.9519 3.04809ZM17.9518 4.10884C18.7634 3.29709 20.0795 3.29704 20.8912 4.10875C21.7028 4.92039 21.7029 6.23632 20.8913 7.04802L8.94119 18.9995C8.73104 19.2097 8.46668 19.3574 8.17755 19.4263L4.76191 20.2395L5.57521 16.8237C5.64402 16.5347 5.79168 16.2704 6.00175 16.0603L17.9518 4.10884Z" fill="#999999"/>
</svg>
