<svg width="20" height="18" viewBox="0 0 20 18" fill="none" xmlns="http://www.w3.org/2000/svg">
<path d="M12.9936 0.893949C14.0055 -0.0857297 15.6678 0.873993 15.3254 2.2402L14.5972 5.14516C14.4135 5.87803 14.8445 6.62446 15.571 6.8318L18.4509 7.65367C19.8052 8.0402 19.8053 9.95965 18.4509 10.3462L15.571 11.168C14.8445 11.3754 14.4135 12.1218 14.5972 12.8547L15.3254 15.7596C15.6678 17.1259 14.0056 18.0856 12.9936 17.1059L10.8419 15.0228C10.2991 14.4973 9.43719 14.4973 8.89435 15.0228L6.74267 17.1059C5.73073 18.0856 4.06844 17.1259 4.41089 15.7597L5.13906 12.8547C5.32276 12.1218 4.89181 11.3754 4.16527 11.168L1.28542 10.3462C-0.0689746 9.95965 -0.0689756 8.0402 1.28542 7.65368L4.16527 6.8318C4.89181 6.62446 5.32276 5.87803 5.13906 5.14516L4.41089 2.2402C4.06844 0.873994 5.73073 -0.0857291 6.74267 0.89395L8.89435 2.97704C9.43719 3.50257 10.2991 3.50257 10.8419 2.97704L12.9936 0.893949Z" fill="#0C3675"/>
</svg>
