<svg width="26" height="28" viewBox="0 0 26 28" fill="none" xmlns="http://www.w3.org/2000/svg">
<path d="M11.0768 1.73898C11.629 -0.195876 14.371 -0.195878 14.9232 1.73898L16.0973 5.85305C16.3935 6.89096 17.4598 7.5066 18.5068 7.24417L22.6567 6.20394C24.6085 5.71471 25.9795 8.08941 24.58 9.53504L21.6041 12.6089C20.8534 13.3844 20.8534 14.6156 21.6041 15.3911L24.58 18.465C25.9795 19.9106 24.6085 22.2853 22.6567 21.7961L18.5068 20.7558C17.4599 20.4934 16.3935 21.109 16.0973 22.147L14.9232 26.261C14.371 28.1959 11.629 28.1959 11.0768 26.261L9.90268 22.147C9.60648 21.109 8.54015 20.4934 7.49319 20.7558L3.34325 21.7961C1.39153 22.2853 0.020493 19.9106 1.42003 18.465L4.39587 15.3911C5.14663 14.6156 5.14663 13.3844 4.39587 12.6089L1.42004 9.53504C0.0204945 8.08941 1.39153 5.71471 3.34325 6.20394L7.49319 7.24417C8.54015 7.5066 9.60648 6.89096 9.90268 5.85305L11.0768 1.73898Z" fill="#2A79EF"/>
</svg>
