<svg width="562" height="83" viewBox="0 0 562 83" fill="none" xmlns="http://www.w3.org/2000/svg">
<path d="M82.6981 40.836C82.6981 58.9001 71.186 75.1615 53.9047 80.7557C48.6378 82.4661 43.0847 83.116 37.5656 82.668C37.5656 82.668 12.3917 80.168 4.40624 61.3968C4.27243 61.0854 4.22787 60.7429 4.27754 60.4076C4.3272 60.0724 4.46914 59.7575 4.68745 59.4984C4.90576 59.2393 5.19183 59.0461 5.51364 58.9404C5.83546 58.8347 6.18031 58.8208 6.50959 58.9001C8.21815 59.3018 10.9751 60.7427 15.4173 64.4943C19.1717 67.7079 23.7009 69.8826 28.555 70.8023C35.293 72.034 44.277 71.204 52.5312 62.4293C52.5312 62.4293 55.9351 59.4413 53.9146 59.1093C52.6971 58.9101 51.3269 59.9194 50.2122 60.4373C50.2122 60.4373 45.9823 63.1763 43.1424 64.4545C41.1822 65.2676 39.1761 65.9648 37.1343 66.5428C35.4802 67.043 33.763 67.3035 32.0351 67.3163C30.2403 67.3163 28.8934 67.0175 27.9943 66.1244C26.9692 65.1085 27.8218 62.8376 33.0437 61.1079C41.1253 58.432 44.6553 55.3079 51.5592 53.7475C58.964 52.0875 74.3875 57.3995 82.6981 35.1787V40.836Z" fill="#08976C"/>
<path d="M63.1733 6.0756V6.12208C55.7916 1.80608 42.6308 -3.05108 26.8324 3.39968C-7.48478 17.4101 1.23386 51.5762 1.23386 51.5762C1.23386 51.5762 6.89366 23.24 35.2325 27.8216C49.3157 30.1091 61.186 24.3456 67.0814 15.5376C43.3606 -0.730401 23.2892 11.9387 23.2892 11.9387C41.798 -2.71908 63.2894 10.2787 68.9758 14.2295C81.7385 22.4664 79.0015 37.3633 79.0015 37.3633C86.2571 17.7222 63.6676 6.28808 63.1733 6.0756Z" fill="#08976C"/>
<path d="M113.252 13.114V27.39H146.637V33.2332H129.518V40.2052H152.609V45.982H99.252V40.2052H122.21V33.2332H106.02V13.114H113.252ZM105.29 51.0948H146.03V71.214H138.798V56.938H105.29V51.0948Z" fill="#08976C"/>
<path d="M175.424 15.5044V22.8084C175.409 26.2127 176.415 29.5432 178.31 32.37C180.234 35.2916 183.054 37.5271 186.77 39.0764L182.855 44.654C177.903 42.5713 174.276 39.0078 171.974 33.9636C170.91 36.6422 169.37 39.1057 167.429 41.2344C165.487 43.3486 163.125 45.0336 160.495 46.1812L156.58 40.5372C160.384 38.8108 163.304 36.3097 165.339 33.034C167.373 29.7583 168.391 26.3497 168.391 22.8084V15.5044H175.424ZM166.931 50.7628H207.207V71.214H199.908V56.606H166.931V50.7628ZM187.699 13.0476H194.533V26.8588H200.24V12.118H207.207V47.9076H200.24V32.7684H194.533V47.5756H187.699V13.0476Z" fill="#08976C"/>
<path d="M229.369 46.2476V42.4628C226.095 42.0201 223.519 41.0241 221.639 39.4748C220.743 38.7763 220.021 37.8787 219.532 36.853C219.042 35.8273 218.798 34.7017 218.819 33.5652C218.819 30.7321 220.09 28.5077 222.634 26.892C225.177 25.2763 228.598 24.4684 232.895 24.4684C237.23 24.4684 240.68 25.2763 243.246 26.892C245.812 28.5077 247.094 30.7321 247.094 33.5652C247.11 34.688 246.867 35.7993 246.383 36.8127C245.9 37.8261 245.19 38.7143 244.308 39.4084C242.45 40.9577 239.884 41.9537 236.611 42.3964V45.9156C242.848 45.5172 247.758 45.0303 251.341 44.4548L251.938 49.5012C246.237 50.5454 240.475 51.2219 234.687 51.5264C228.671 51.8584 222.279 52.0465 215.511 52.0908L214.582 46.4468C219.132 46.4468 224.06 46.3804 229.369 46.2476ZM216.098 17.2308H229.369V11.786H236.601V17.2308H249.739V22.5428H216.098V17.2308ZM222.999 55.278H230.364V64.1756H263.606V70.0188H222.999V55.278ZM227.61 36.6196C228.871 37.3279 230.629 37.682 232.885 37.682C235.183 37.682 236.975 37.3279 238.26 36.6196C239.545 35.9113 240.186 34.8932 240.184 33.5652C240.184 32.2372 239.542 31.2191 238.26 30.5108C236.977 29.8025 235.189 29.4484 232.895 29.4484C230.639 29.4484 228.881 29.8025 227.62 30.5108C226.359 31.2191 225.729 32.2372 225.729 33.5652C225.723 34.8932 226.35 35.9113 227.61 36.6196ZM261.549 12.0516V31.9052H269.511V37.8812H261.549V58.266H254.25V12.0516H261.549Z" fill="#08976C"/>
<path d="M314.896 34.2956V27.8548H301.625C299.767 32.5028 296.726 36.4757 292.502 39.7736C288.278 43.0715 282.958 45.6279 276.544 47.4428L273.701 41.666C280.469 39.8511 285.711 37.2615 289.427 33.8972C293.142 30.5329 295.266 26.5932 295.796 22.078H276.82V16.2348H303.692C303.707 18.1703 303.552 20.1034 303.228 22.0116H314.906V12.0516H322.204V46.646H314.906V40.1388H300.972V34.2956H314.896ZM285.402 52.8876C287.015 51.1169 289.315 49.7557 292.303 48.804C295.291 47.8523 298.774 47.3764 302.753 47.3764C306.734 47.3764 310.207 47.8523 313.171 48.804C316.134 49.7557 318.434 51.1169 320.071 52.8876C321.649 54.5825 322.526 56.8128 322.526 59.1292C322.526 61.4456 321.649 63.6759 320.071 65.3708C318.432 67.1415 316.121 68.5027 313.137 69.4544C310.154 70.4061 306.692 70.882 302.753 70.882C298.772 70.882 295.289 70.4061 292.303 69.4544C289.317 68.5027 287.017 67.1415 285.402 65.3708C283.845 63.6659 282.981 61.4394 282.981 59.1292C282.981 56.819 283.845 54.5925 285.402 52.8876ZM293.53 63.6444C295.742 64.7068 298.816 65.238 302.753 65.238C306.69 65.238 309.776 64.7068 312.009 63.6444C314.243 62.582 315.36 61.0769 315.36 59.1292C315.36 57.1815 314.254 55.6764 312.043 54.614C309.831 53.5516 306.734 53.0204 302.753 53.0204C298.816 53.0204 295.742 53.5516 293.53 54.614C291.319 55.6764 290.213 57.1815 290.213 59.1292C290.213 61.0791 291.319 62.5842 293.53 63.6444Z" fill="#08976C"/>
<path d="M366.053 17.8948V23.9372H353.181V28.8508C353.185 32.1565 353.804 35.4325 355.005 38.512C356.208 41.6571 357.986 44.5506 360.247 47.0444C362.456 49.5182 365.187 51.4689 368.242 52.7548L364.195 58.5316C360.81 57.0106 357.807 54.7536 355.403 51.9248C352.854 48.9415 350.885 45.507 349.598 41.7988C348.316 45.7887 346.339 49.5203 343.759 52.8212C341.414 55.8652 338.392 58.3205 334.934 59.9924L330.764 54.2156C333.845 52.7766 336.574 50.6802 338.759 48.0736C341.037 45.3924 342.812 42.322 344.001 39.01C345.197 35.7561 345.814 32.3178 345.826 28.8508V23.9372H332.953V17.8948H366.053ZM372.489 12.118H379.788V71.214H372.489V12.118Z" fill="#08976C"/>
<path d="M409.249 38.2796C415.307 38.0583 421.102 37.6156 426.633 36.9516L427.031 42.1308C422.152 42.93 417.236 43.4841 412.301 43.7908V55.1452H405.002V44.1892C400.49 44.4105 395.403 44.5212 389.741 44.5212L388.812 38.678C396.377 38.6359 403.189 38.5031 409.249 38.2796ZM395.05 19.2228C396.288 17.6292 398.024 16.4008 400.258 15.5376C405.188 13.8113 410.557 13.8113 415.486 15.5376C417.518 16.2692 419.312 17.5436 420.671 19.2228C421.895 20.7717 422.55 22.6935 422.529 24.6676C422.557 26.6632 421.902 28.6082 420.671 30.1788C419.314 31.8565 417.525 33.1308 415.496 33.864C410.555 35.5904 405.176 35.5904 400.235 33.864C398.205 33.1327 396.415 31.858 395.06 30.1788C393.828 28.609 393.172 26.6634 393.202 24.6676C393.178 22.6947 393.83 20.773 395.05 19.2228ZM396.576 52.622H403.874V64.1756H439.638V70.0188H396.576V52.622ZM402.282 28.4192C403.695 29.3244 405.553 29.7782 407.855 29.7804C410.198 29.7804 412.067 29.3267 413.462 28.4192C414.102 28.0242 414.629 27.4722 414.995 26.8155C415.361 26.1589 415.554 25.4195 415.554 24.6676C415.554 23.9157 415.361 23.1763 414.995 22.5197C414.629 21.863 414.102 21.311 413.462 20.916C412.069 20.0107 410.2 19.557 407.855 19.5548C405.553 19.5548 403.695 20.0085 402.282 20.916C400.869 21.8235 400.161 23.074 400.159 24.6676C400.159 26.2612 400.866 27.5117 402.282 28.4192ZM438.255 12.0516V56.938H430.956V51.6924H419.543V46.646H430.956V12.0516H438.255Z" fill="#08976C"/>
<path d="M455.26 34.9264C457.176 31.6523 458.195 27.9306 458.216 24.1364V16.102H465.249V24.1364C465.227 27.6845 466.166 31.1724 467.966 34.2292C469.78 37.3279 472.434 39.7183 475.928 41.4004L471.947 46.9116C469.64 45.8317 467.567 44.3089 465.846 42.4296C464.106 40.519 462.737 38.3011 461.808 35.8892C460.753 38.5968 459.238 41.1015 457.33 43.2928C455.476 45.4219 453.208 47.1503 450.665 48.3724L446.684 42.8612C450.298 41.1736 453.295 38.3998 455.26 34.9264ZM457.884 51.0948H465.182V64.1756H498.756V70.0188H457.884V51.0948ZM478.582 26.1284V13.114H485.42V54.614H478.582V32.038H470.766V26.1284H478.582ZM490.26 12.118H497.161V56.3404H490.26V12.118Z" fill="#08976C"/>
<path d="M507.777 17.1644H535.048V23.1404H515.01V33.6316H532.858V39.4084H515.01V51.6924C519.92 51.6503 524.122 51.5175 527.617 51.294C531.111 51.0705 534.628 50.6721 538.166 50.0988L538.896 55.942C534.931 56.599 530.933 57.0423 526.92 57.27C522.961 57.4913 518.128 57.602 512.422 57.602H507.777V17.1644ZM554.29 11.9852V71.2804H547.071V39.342H536.056V33.4988H547.071V11.9852H554.29Z" fill="#08976C"/>
</svg>
