<svg width="355" height="128" viewBox="0 0 355 128" fill="none" xmlns="http://www.w3.org/2000/svg">
<g clip-path="url(#clip0_636_219)">
<path d="M4 31.5L20.5 7.5H37L54 13.5L68.5 34L86 48V31.5L101 10.5L121.5 7.5L147.5 17.5L156.5 48L147.5 62.5L124.5 78H108V106.5L93.5 123H75L54 106.5L12 55L4 31.5Z" fill="white"/>
<path fill-rule="evenodd" clip-rule="evenodd" d="M156.156 22.0889C151.149 12.2118 142.256 4.68234 131.519 1.56808C128.001 0.547514 124.283 0 120.44 0C101.711 0 85.98 12.9914 81.5616 30.5513C81.2154 31.9223 80.9384 33.3239 80.735 34.7474C80.5013 36.3725 78.4457 36.9024 77.4547 35.6016L61.0965 14.1521C49.5938 -0.937344 28.1767 -3.72748 13.2682 7.91924C-1.64458 19.5703 -4.40124 41.2431 7.10576 56.3326L48.1095 110.103L51.9523 115.144C52.6751 116.09 53.4367 116.993 54.233 117.843C54.8691 118.456 55.5269 119.06 56.215 119.634C68.0725 129.507 84.262 130.497 96.9244 123.392C97.8981 122.779 98.8545 122.109 99.785 121.382C110.872 112.722 115.23 98.5175 112.01 85.5961C111.374 83.0513 113.469 80.686 116.044 80.9707C117.489 81.1284 118.952 81.2117 120.44 81.2117C126.616 81.2117 132.462 79.7969 137.69 77.2783C151.214 70.7519 160.561 56.7838 160.561 40.608C160.561 33.9371 158.973 27.6429 156.156 22.0933V22.0889ZM80.8174 56.3501L77.113 51.5101L39.316 81.5358L48.0533 92.9503L48.0317 92.9678L59.2791 107.663C66.8609 117.571 80.5837 119.818 90.814 113.191C91.5064 112.753 92.1859 112.28 92.8393 111.767C97.8939 107.803 101.122 102.065 101.936 95.6047C102.745 89.144 101.036 82.771 97.1193 77.655L80.8174 56.3589V56.3501ZM85.4522 106.91C80.6399 110.685 74.2308 111.01 69.1546 108.289C67.2504 107.181 65.5237 105.701 64.074 103.866L52.8396 89.1922L52.831 89.201L47.7591 82.5739L76.0484 60.1302L81.2761 66.9631L75.7238 71.3958L87.5251 86.1568C92.597 92.7839 91.9911 101.781 85.4435 106.914L85.4522 106.91ZM73.322 46.4686L73.3216 46.468L73.3263 46.4642L73.322 46.4686ZM73.3216 46.468L53.6446 20.7048C49.7324 15.5844 44.0677 12.3081 37.6845 11.4846C31.3013 10.6568 25.0047 12.3826 19.9458 16.3422C14.8869 20.3018 11.6498 26.0354 10.8363 32.496C10.0184 38.9567 11.7234 45.3298 15.6355 50.4501L31.8336 71.6542L35.5337 76.4986L73.3216 46.468ZM31.8163 61.6238L54.9948 43.8011L41.8519 26.596C37.3296 20.6741 29.4361 18.8783 22.9491 21.791C23.0314 21.7201 23.1115 21.6481 23.1915 21.5762L23.1916 21.5761C23.3389 21.4437 23.486 21.3115 23.6459 21.1866C27.5666 18.1205 32.3529 16.951 36.9185 17.5423C41.4841 18.1337 45.829 20.4858 48.8583 24.4498L64.9092 45.4655L36.5983 67.883L31.8163 61.6238ZM141.711 20.385C141.711 20.385 146.86 24.9316 148.024 31.7558L148.02 31.7602C148.02 31.7602 132.952 39.9554 147.786 48.8952C147.786 48.8952 146.934 56.8538 141.005 60.0688C141.005 60.0688 127.525 50.8531 126.75 68.7721C126.75 68.7721 119.276 71.2819 114.083 68.575C114.083 68.575 114.434 51.9875 99.2874 60.2221C99.2874 60.2221 94.4449 56.6918 92.8177 48.8514C92.8177 48.8514 108.548 41.3614 93.0514 31.677C93.0514 31.677 93.865 24.5023 99.7159 20.4245C99.7159 20.4245 113.625 30.1877 113.469 12.3475C113.469 12.3475 118.389 10.1925 127.378 12.3475C127.378 12.3475 126.136 29.2854 141.711 20.385ZM106.718 40.6036C106.718 48.2644 112.854 54.4754 120.423 54.4754C127.992 54.4754 134.129 48.2644 134.129 40.6036C134.129 32.9428 127.992 26.7318 120.423 26.7318C112.854 26.7318 106.718 32.9428 106.718 40.6036Z" fill="url(#paint0_linear_636_219)"/>
</g>
<path d="M352.576 64.5521H345.06V33H352.576V64.5521ZM352.576 82.901H319.128V87.7083H354.54V93.6667H311.68V77.4167H345.128V73.0156H311.545V67.125H352.576V82.901ZM337.409 42.75H331.925V56.0885C334.791 55.8403 337.477 55.5694 339.982 55.276L340.321 60.6927C330.458 62.2274 318.135 62.9948 303.352 62.9948L302.54 57.0365L309.514 56.9688V42.75H304.165V36.9271H337.409V42.75ZM316.758 56.8333C319.421 56.7656 322.085 56.6641 324.748 56.5286V42.75H316.758V56.8333Z" fill="url(#paint1_linear_636_219)"/>
<path d="M292.519 94.276H284.936V33H292.519V94.276ZM259.545 37.4688C262.615 37.4688 265.345 38.3602 267.738 40.1432C270.153 41.9036 272.049 44.4201 273.425 47.6927C274.802 50.9427 275.502 54.7344 275.524 59.0677C275.502 63.4236 274.802 67.2378 273.425 70.5104C272.071 73.783 270.187 76.3108 267.772 78.0938C265.357 79.8542 262.615 80.7344 259.545 80.7344C256.453 80.7344 253.7 79.8542 251.285 78.0938C248.87 76.3108 246.974 73.783 245.597 70.5104C244.243 67.2378 243.566 63.4236 243.566 59.0677C243.566 54.7344 244.243 50.9427 245.597 47.6927C246.974 44.4201 248.87 41.9036 251.285 40.1432C253.7 38.3602 256.453 37.4688 259.545 37.4688ZM259.545 44.2396C257.807 44.2396 256.273 44.8264 254.941 46C253.632 47.1736 252.616 48.8776 251.894 51.112C251.172 53.3464 250.811 55.9983 250.811 59.0677C250.811 62.1597 251.172 64.8229 251.894 67.0573C252.616 69.2917 253.632 71.0069 254.941 72.2031C256.273 73.3767 257.807 73.9635 259.545 73.9635C261.26 73.9635 262.773 73.3767 264.082 72.2031C265.391 71.0069 266.406 69.2917 267.128 67.0573C267.851 64.8229 268.212 62.1597 268.212 59.0677C268.212 55.9983 267.851 53.3576 267.128 51.1458C266.406 48.9115 265.391 47.2075 264.082 46.0339C262.773 44.8377 261.26 44.2396 259.545 44.2396Z" fill="url(#paint2_linear_636_219)"/>
<path d="M212.826 79.0417H183.847V38.9583H212.826V79.0417ZM191.227 73.0156H205.311V44.849H191.227V73.0156ZM229.618 56.4948H239.029V62.8594H229.618V94.2083H222.102V33H229.618V56.4948Z" fill="url(#paint3_linear_636_219)"/>
<defs>
<linearGradient id="paint0_linear_636_219" x1="80.2799" y1="0" x2="80.2799" y2="128.004" gradientUnits="userSpaceOnUse">
<stop stop-color="#5496FF"/>
<stop offset="1" stop-color="#8739E5"/>
</linearGradient>
<linearGradient id="paint1_linear_636_219" x1="179.649" y1="63.4803" x2="360.421" y2="63.4803" gradientUnits="userSpaceOnUse">
<stop stop-color="#5496FF"/>
<stop offset="1" stop-color="#8739E5"/>
</linearGradient>
<linearGradient id="paint2_linear_636_219" x1="179.649" y1="63.4803" x2="360.421" y2="63.4803" gradientUnits="userSpaceOnUse">
<stop stop-color="#5496FF"/>
<stop offset="1" stop-color="#8739E5"/>
</linearGradient>
<linearGradient id="paint3_linear_636_219" x1="179.649" y1="63.4803" x2="360.421" y2="63.4803" gradientUnits="userSpaceOnUse">
<stop stop-color="#5496FF"/>
<stop offset="1" stop-color="#8739E5"/>
</linearGradient>
<clipPath id="clip0_636_219">
<rect width="160.561" height="128" fill="white"/>
</clipPath>
</defs>
</svg>
