<svg width="364" height="145" viewBox="0 0 364 145" fill="none" xmlns="http://www.w3.org/2000/svg">
<g clip-path="url(#clip0_589_81)">
<path d="M110.668 31.7441C110.633 31.6144 110.595 31.4875 110.558 31.3607C110.523 31.2339 110.486 31.1071 110.448 30.9802C108.463 24.6216 102.969 19.978 96.4762 19.3208C95.7711 19.269 95.0545 19.2632 94.3263 19.3122V55.2415L86.6859 47.2428L79.0454 55.2415V21.3875L20.5604 29.4814L13.8678 30.4066C5.93838 31.5048 0 38.7397 0 47.3034V96.5783C0 105.243 6.07131 112.527 14.1105 113.504L20.2887 114.256C20.2887 114.256 20.4159 114.648 20.5864 115.337C20.8031 116.213 21.0892 117.571 21.277 119.228C21.8261 124.068 21.5284 131.467 16.1796 136.932C16.1796 136.932 22.7017 135.468 29.6803 130.951C29.952 130.775 30.2265 130.597 30.4981 130.409C34.9945 127.357 39.5805 123.019 42.6552 116.974L93.5374 123.169C102.972 124.316 111.243 116.412 111.243 106.243V36.3098C111.243 34.7245 111.04 33.1939 110.665 31.7441H110.668Z" fill="#88BCFF"/>
<path d="M106.559 0L38.0722 10.9359C27.4785 12.8585 18.4684 19.4506 17.876 29.8878L79.0485 21.7161V55.2386L86.6889 47.2399L94.3293 55.2386V19.7561C95.0547 19.7301 95.7713 19.759 96.4793 19.831C102.946 20.3153 108.46 24.9877 110.451 31.4443C110.492 31.5682 110.523 31.6951 110.561 31.8219C110.598 31.9487 110.636 32.0755 110.671 32.2052C111.046 33.6263 111.249 35.1223 111.249 36.673V106.402C111.249 116.53 102.981 124.402 93.5433 123.258L42.6611 117.09C39.5865 123.108 35.0005 127.429 30.5041 130.47C30.2295 130.654 29.9579 130.833 29.6863 131.009C32.2437 132.257 35.0814 133.199 38.0751 133.819L106.562 144.997C126.512 144.997 142.683 128.965 142.683 109.192V35.8054C142.68 16.032 126.506 0 106.559 0Z" fill="#012C64"/>
</g>
<path d="M279.478 70.3153V31.1331H292.457V40.194H344.128V31.1331H357.107V70.3153H279.478ZM344.128 50.6018H292.457V59.7851H344.128V50.6018ZM324.905 96.8858H357.352V125.293H343.883V108.028H278.621V96.8858H311.681V88.682H273.355V77.4171H363.107V88.682H324.905V96.8858Z" fill="#012C64"/>
<path d="M258.552 61.9891V81.8251H245.328V30.7658H258.552V48.6427H270.307V61.9891H258.552ZM239.818 73.9887C237.206 75.2131 233.574 76.1927 228.921 76.9273C224.35 77.5804 219.329 77.9069 213.86 77.9069H179.086V32.6024H233.941V44.2347H192.432V66.2747H214.595C219.901 66.2747 224.758 65.9481 229.166 65.2951C233.574 64.6421 237.125 63.7033 239.818 62.4789V73.9887ZM258.552 86.2331V124.068H182.147V86.2331H258.552ZM245.328 112.436V97.8653H195.371V112.436H245.328Z" fill="#012C64"/>
<defs>
<clipPath id="clip0_589_81">
<rect width="142.68" height="145" fill="white"/>
</clipPath>
</defs>
</svg>
