<svg width="491" height="117" viewBox="0 0 491 117" fill="none" xmlns="http://www.w3.org/2000/svg">
<path fill-rule="evenodd" clip-rule="evenodd" d="M58.2133 116.427C90.3636 116.427 116.427 90.3636 116.427 58.2133C116.427 26.063 90.3636 0 58.2133 0C26.063 0 0 26.063 0 58.2133C0 90.3636 26.063 116.427 58.2133 116.427ZM58.2141 80.3513C70.4403 80.3513 80.3515 70.4401 80.3515 58.2139C80.3515 45.9877 70.4403 36.0765 58.2141 36.0765C45.9879 36.0765 36.0766 45.9877 36.0766 58.2139C36.0766 70.4401 45.9879 80.3513 58.2141 80.3513Z" fill="#FE9900"/>
<path fill-rule="evenodd" clip-rule="evenodd" d="M299.266 116.427C331.416 116.427 357.479 90.3636 357.479 58.2133C357.479 26.063 331.416 0 299.266 0C267.116 0 241.053 26.063 241.053 58.2133C241.053 90.3636 267.116 116.427 299.266 116.427ZM299.265 80.3513C311.492 80.3513 321.403 70.4401 321.403 58.2139C321.403 45.9877 311.492 36.0765 299.265 36.0765C287.039 36.0765 277.128 45.9877 277.128 58.2139C277.128 70.4401 287.039 80.3513 299.265 80.3513Z" fill="#FE9900"/>
<rect x="377.156" y="4.91926" width="113.147" height="44.2749" rx="20" fill="#FE9900"/>
<rect x="377.156" y="68.8724" width="75.4313" height="44.2749" rx="20" fill="#FE9900"/>
<path d="M143.999 20.165C151.913 12.4592 164.575 12.6279 172.281 20.5417L220.265 69.8212C227.97 77.735 227.802 90.3972 219.888 98.103L216.825 101.085C208.911 108.791 196.249 108.622 188.543 100.709L140.559 51.4291C132.854 43.5152 133.022 30.8531 140.936 23.1473L143.999 20.165Z" fill="#FE9900"/>
</svg>
