<svg width="455" height="127" viewBox="0 0 455 127" fill="none" xmlns="http://www.w3.org/2000/svg">
<path d="M134 43.9272H142.393V66.1871C149.591 65.9975 157.744 65.4017 164.172 63.8582V43.9272H172.565V95.217H164.172V71.6573C157.744 73.2279 149.591 73.7966 142.393 73.9862V95.217H134V43.9272ZM221.328 95.217H212.537L208.898 82.6789C202.736 84.4933 196.548 85.1432 190.121 85.2786L187.252 95.217H178.594L193.998 43.9272H205.897L221.302 95.217H221.328ZM206.747 75.2318L199.948 51.7263L192.431 77.4253C197.345 77.1545 201.993 76.5859 206.747 75.2318ZM227.384 43.9272H241.912C244.408 56.709 249.614 71.3865 255.803 84.4391V43.9272H264.089V95.217H252.244C245.444 82.6789 239.522 67.2974 235.697 52.8365V95.217H227.41V43.9272H227.384ZM309.267 62.9645V76.2067C309.267 88.6636 299.599 95.217 290.304 95.217H272.987V43.9272H290.304C299.599 43.9272 309.267 50.4806 309.267 62.9375V62.9645ZM290.277 87.445C296.067 87.445 300.848 83.5455 300.848 76.2067V62.9645C300.848 55.6258 296.067 51.7263 290.277 51.7263H281.353V87.445H290.277ZM325.601 95.217H317.209V43.9272H335.853C344.193 43.9272 350.806 48.937 350.806 58.0089C350.806 69.9512 340.103 76.2609 325.601 77.7503V95.217ZM342.414 58.4151C342.414 54.326 339.997 51.7263 335.8 51.7263H325.601V69.8971C338.217 68.4076 342.414 63.8582 342.414 58.4151ZM357.818 43.9272H366.211V95.217H357.818V43.9272ZM393.169 96.1919C383.873 96.1919 374.206 89.6385 374.206 77.1816V61.9896C374.206 49.5328 383.873 42.9794 393.169 42.9794C401.695 42.9794 410.486 48.5037 411.947 58.9567H403.421C402.279 53.6219 398.083 50.8326 393.169 50.8326C387.379 50.8326 382.598 54.6509 382.598 61.9896V77.1816C382.598 84.5203 387.379 88.3386 393.169 88.3386C398.322 88.3386 402.651 85.3598 403.554 79.5647H412.026C410.884 90.478 401.828 96.1919 393.169 96.1919ZM419.304 43.9272H427.697V67.4869C436.621 60.0128 443.234 51.1305 446.474 43.9272H455C452.317 50.8055 446.846 59.4441 439.516 67.2432L454.788 95.217H444.987L433.195 73.2821C431.415 74.8527 429.556 76.3421 427.644 77.6961V95.217H419.251V43.9272H419.304Z" fill="url(#paint0_linear_476_914)"/>
<path d="M109.359 52.9561L24.1165 0.607295C22.8165 -0.179293 21.1982 -0.206417 19.8716 0.553048C18.5451 1.31251 17.7227 2.75007 17.7227 4.29612V71.5901C17.7227 73.977 19.6063 75.9028 21.941 75.9028C24.2757 75.9028 26.1594 73.977 26.1594 71.5901V59.5201H48.9492V93.1806C48.9492 95.5675 50.8329 97.4933 53.1676 97.4933C55.5023 97.4933 57.3859 95.5675 57.3859 93.1806V39.6655C57.3859 37.2786 55.5023 35.3528 53.1676 35.3528C50.8329 35.3528 48.9492 37.2786 48.9492 39.6655V50.8947H26.1594V11.9179L99.1982 56.7534L65.0267 79.1848C63.0635 80.4596 62.5063 83.1448 63.7533 85.152C64.5492 86.4268 65.9288 87.132 67.3084 87.132C68.0778 87.132 68.8737 86.915 69.59 86.4539L109.492 60.2795C110.712 59.4658 111.455 58.0825 111.429 56.5907C111.429 55.0989 110.633 53.7156 109.386 52.9561H109.359Z" fill="url(#paint1_linear_476_914)"/>
<path d="M4.21837 126.814C3.50204 126.814 2.78571 126.624 2.14898 126.244C0.822449 125.485 0 124.047 0 122.501V31.0401C0 28.6532 1.88367 26.7274 4.21837 26.7274C6.55306 26.7274 8.43673 28.6532 8.43673 31.0401V114.88L35.8163 98.09C37.8061 96.8694 40.4061 97.5204 41.6 99.5818C42.7939 101.616 42.1571 104.274 40.1408 105.495L6.36735 126.19C5.70408 126.597 4.96122 126.814 4.19184 126.814H4.21837Z" fill="url(#paint2_linear_476_914)"/>
<defs>
<linearGradient id="paint0_linear_476_914" x1="134" y1="69.5721" x2="455.027" y2="69.5721" gradientUnits="userSpaceOnUse">
<stop stop-color="#E100FF"/>
<stop offset="0.03" stop-color="#DB03FC"/>
<stop offset="0.36" stop-color="#A029E7"/>
<stop offset="0.65" stop-color="#7544D8"/>
<stop offset="0.87" stop-color="#5B55CE"/>
<stop offset="1" stop-color="#525CCB"/>
</linearGradient>
<linearGradient id="paint1_linear_476_914" x1="83.2002" y1="15.0914" x2="-35.0745" y2="108.445" gradientUnits="userSpaceOnUse">
<stop stop-color="#E100FF"/>
<stop offset="1" stop-color="#525CCB"/>
</linearGradient>
<linearGradient id="paint2_linear_476_914" x1="83.2531" y1="15.1727" x2="-35.021" y2="108.499" gradientUnits="userSpaceOnUse">
<stop stop-color="#E100FF"/>
<stop offset="1" stop-color="#525CCB"/>
</linearGradient>
</defs>
</svg>
