<svg width="41" height="41" viewBox="0 0 41 41" fill="none" xmlns="http://www.w3.org/2000/svg">
<path d="M31.6655 12.3661L39.1573 19.8573C39.6008 20.3008 39.6414 20.9947 39.2791 21.484L39.1583 21.6242L31.6665 29.1323C31.1789 29.621 30.3874 29.6218 29.8988 29.1342C29.4544 28.6908 29.4134 27.9965 29.776 27.5068L29.8968 27.3665L35.2583 21.995L3.02979 21.9962C2.39695 21.9962 1.87395 21.5258 1.79111 20.9157L1.77979 20.7462C1.77979 20.1133 2.24995 19.5903 2.86012 19.5075L3.02979 19.4962L35.2616 19.495L29.8978 14.1339C29.4541 13.6902 29.4136 12.9957 29.7767 12.5064L29.8978 12.3662C30.3415 11.9224 31.036 11.882 31.5253 12.2451L31.6655 12.3661Z" fill="#2A79EF"/>
</svg>
