<svg width="280" height="313" viewBox="0 0 280 313" fill="none" xmlns="http://www.w3.org/2000/svg">
<rect x="6" y="38.4999" width="268" height="268" stroke="#1FD3D8" stroke-width="2"/>
<rect y="32.4999" width="12" height="12" fill="#1FD3D8"/>
<rect y="300.5" width="12" height="12" fill="#1FD3D8"/>
<rect x="268" y="32.4999" width="12" height="12" fill="#1FD3D8"/>
<rect x="268" y="300.5" width="12" height="12" fill="#1FD3D8"/>
<circle cx="140.039" cy="172.5" r="134" transform="rotate(-0.458827 140.039 172.5)" fill="#FF7111"/>
<ellipse cx="86.5147" cy="78.1242" rx="22.4937" ry="74.592" transform="rotate(11.4747 86.5147 78.1242)" fill="#F2F2F2"/>
<ellipse cx="77.5675" cy="69.4361" rx="12.9557" ry="36.9187" transform="rotate(13.0119 77.5675 69.4361)" fill="black"/>
<ellipse cx="165.425" cy="78.6163" rx="22.5259" ry="74.6986" transform="rotate(8.05976 165.425 78.6163)" fill="#F2F2F2"/>
<path d="M169.713 72.6543C166.097 92.7502 157.448 108.012 150.396 106.743C143.343 105.474 140.559 88.154 144.175 68.058C147.792 47.9621 156.441 32.7001 163.493 33.9693C170.545 35.2385 173.33 52.5584 169.713 72.6543Z" fill="black"/>
</svg>
