<svg width="178" height="178" viewBox="0 0 178 178" fill="none" xmlns="http://www.w3.org/2000/svg">
<path fill-rule="evenodd" clip-rule="evenodd" d="M84.9587 0.507657L48.3398 10.3197L55.8201 38.2366C53.2292 39.902 50.7876 41.7511 48.5085 43.7611L23.5427 29.347L4.58731 62.1786L29.2562 76.4212C28.5777 79.4936 28.1345 82.6337 27.9414 85.8162L0.507697 93.167L10.3197 129.786L37.5187 122.498C39.2852 125.246 41.2584 127.826 43.4111 130.223L29.3469 154.583L62.1785 173.538L76.2427 149.178C79.3945 149.844 82.6158 150.263 85.8792 150.419L93.1672 177.618L129.786 167.806L122.435 140.372C125.095 138.613 127.592 136.66 129.914 134.536L154.583 148.779L173.538 115.947L148.572 101.533C149.173 98.5542 149.554 95.5153 149.701 92.4389L177.618 84.9585L167.806 48.3396L139.654 55.8829C137.998 53.3789 136.169 51.0181 134.189 48.8129L148.778 23.5427L115.947 4.58737L101.357 29.8576C98.457 29.2448 95.4982 28.8413 92.502 28.6595L84.9587 0.507657ZM97.9831 120.918C115.431 116.243 125.786 98.3086 121.111 80.8604C116.435 63.4121 98.5008 53.0576 81.0526 57.7328C63.6044 62.4081 53.2498 80.3427 57.9251 97.7909C62.6003 115.239 80.5349 125.594 97.9831 120.918Z" fill="#7D7D7D" fill-opacity="0.65"/>
</svg>
