<svg width="127" height="127" viewBox="0 0 127 127" fill="none" xmlns="http://www.w3.org/2000/svg">
<path opacity="0.85" fill-rule="evenodd" clip-rule="evenodd" d="M60.4072 0.433274L34.4018 7.40139L39.7141 27.227C37.8741 28.4097 36.1402 29.7229 34.5217 31.1502L16.7919 20.9139L3.33051 44.2297L20.8494 54.3442C20.3676 56.5261 20.0529 58.7561 19.9157 61.0162L0.433311 66.2365L7.40143 92.2418L26.7172 87.0662C27.9717 89.0179 29.373 90.8503 30.9017 92.5522L20.9139 109.852L44.2296 123.313L54.2175 106.014C56.4558 106.487 58.7434 106.784 61.0609 106.895L66.2365 126.21L92.2419 119.242L87.0216 99.7597C88.9103 98.5109 90.6842 97.1233 92.3328 95.6152L109.852 105.73L123.313 82.4139L105.583 72.1776C106.01 70.0623 106.28 67.9041 106.385 65.7194L126.21 60.4071L119.242 34.4017L99.2498 39.7587C98.074 37.9804 96.7752 36.3039 95.3685 34.7379L105.73 16.7919L82.4139 3.33054L72.0527 21.2765C69.9932 20.8413 67.892 20.5548 65.7641 20.4256L60.4072 0.433274ZM69.6567 85.9445C82.0478 82.6243 89.4012 69.8878 86.081 57.4968C82.7608 45.1057 70.0243 37.7523 57.6333 41.0725C45.2422 44.3926 37.8888 57.1291 41.209 69.5202C44.5292 81.9112 57.2656 89.2647 69.6567 85.9445Z" fill="#D9D9D9"/>
</svg>
