<svg width="332" height="629" viewBox="0 0 332 629" fill="none" xmlns="http://www.w3.org/2000/svg">
<g opacity="0.9">
<path d="M160.566 63.9362C160.566 63.9362 133.781 68.5103 111.445 55.6141C89.1077 42.7179 79.6768 17.2349 79.6768 17.2349C79.6768 17.2349 106.461 12.6608 128.798 25.557C151.135 38.4532 160.566 63.9362 160.566 63.9362Z" fill="#08976C"/>
<path d="M243.546 15.0285C243.546 15.0285 233.26 41.0054 209.867 54.5109C186.475 68.0164 158.835 63.9362 158.835 63.9362C158.835 63.9362 169.122 37.9593 192.514 24.4538C215.906 10.9484 243.546 15.0285 243.546 15.0285Z" fill="#08976C"/>
<path d="M162.125 115.722C162.041 117.1 163.09 118.286 164.468 118.37C165.846 118.453 167.031 117.404 167.115 116.026L162.125 115.722ZM157.078 64.1977C159.268 72.9584 163.349 95.6011 162.125 115.722L167.115 116.026C168.382 95.2109 164.188 72.0228 161.928 62.985L157.078 64.1977Z" fill="#08976C"/>
<path fill-rule="evenodd" clip-rule="evenodd" d="M275.225 407.007C310.022 376.578 332 331.856 332 282C332 190.321 257.679 116 166 116C74.3207 116 0 190.321 0 282C0 327.839 18.5797 369.339 48.6192 399.379C69.125 422.556 97.865 460.119 100.888 492.362H225.388C229.667 473.895 246.279 434.801 275.225 407.007Z" fill="#FFCD04"/>
<rect x="100.172" y="492.362" width="125.931" height="31.4828" fill="#545454"/>
<rect x="100.172" y="523.845" width="125.931" height="31.4828" rx="4" fill="#545454"/>
<rect x="100.172" y="555.328" width="125.931" height="31.4828" rx="4" fill="#545454"/>
<path fill-rule="evenodd" clip-rule="evenodd" d="M214.655 586.81H110.189V598.957H110.19L135.948 628.31H189.612L214.655 598.957L214.655 598.957H214.655V586.81Z" fill="#868684"/>
<path d="M152.405 492.362V417.948C144.535 390.52 124.786 331.943 108.759 317.06C118.061 317.537 139.097 315.772 148.828 304.897C146.92 322.784 147.397 358.56 164.569 358.56C181.742 358.56 184.127 322.784 183.173 304.897C186.512 310.382 198.198 320.495 218.233 317.06C207.977 334.71 185.176 379.597 176.017 417.948V492.362" stroke="white" stroke-width="3"/>
<line x1="114.552" y1="508.035" x2="211.724" y2="508.035" stroke="#868684" stroke-width="3" stroke-linecap="round"/>
<line x1="114.552" y1="539.517" x2="211.724" y2="539.517" stroke="#868684" stroke-width="3" stroke-linecap="round"/>
<line x1="114.552" y1="571" x2="211.724" y2="571" stroke="#868684" stroke-width="3" stroke-linecap="round"/>
</g>
</svg>
