<svg width="115" height="115" viewBox="0 0 115 115" fill="none" xmlns="http://www.w3.org/2000/svg">
<g opacity="0.75">
<path d="M57 58C64.6167 58 72.1588 56.4998 79.1956 53.585C86.2325 50.6702 92.6264 46.398 98.0122 41.0122C103.398 35.6264 107.67 29.2325 110.585 22.1956C113.5 15.1588 115 7.61667 115 0L57 1.86777e-06L57 58Z" fill="url(#paint0_linear_98_1627)"/>
<path d="M57 57C57 64.6167 58.5002 72.1588 61.415 79.1956C64.3298 86.2325 68.602 92.6264 73.9878 98.0122C79.3736 103.398 85.7675 107.67 92.8044 110.585C99.8412 113.5 107.383 115 115 115L115 57L57 57Z" fill="url(#paint1_linear_98_1627)"/>
<path d="M57 57C49.5147 57 42.1026 58.5002 35.187 61.415C28.2715 64.3298 21.9879 68.602 16.6949 73.9878C11.402 79.3736 7.20338 85.7675 4.33887 92.8044C1.47435 99.8412 -6.6013e-07 107.383 0 115L57 115L57 57Z" fill="url(#paint2_linear_98_1627)"/>
<path d="M57 57C57 49.5147 55.5257 42.1026 52.6611 35.187C49.7966 28.2715 45.598 21.9879 40.3051 16.6949C35.0121 11.402 28.7285 7.20338 21.813 4.33887C14.8974 1.47435 7.48535 -3.27195e-07 0 0L4.32712e-06 57H57Z" fill="url(#paint3_linear_98_1627)"/>
</g>
<defs>
<linearGradient id="paint0_linear_98_1627" x1="115" y1="29" x2="57" y2="29" gradientUnits="userSpaceOnUse">
<stop stop-color="#03A9F4"/>
<stop offset="1" stop-color="#D7A3FF"/>
</linearGradient>
<linearGradient id="paint1_linear_98_1627" x1="86" y1="115" x2="86" y2="57" gradientUnits="userSpaceOnUse">
<stop stop-color="#03A9F4"/>
<stop offset="1" stop-color="#D7A3FF"/>
</linearGradient>
<linearGradient id="paint2_linear_98_1627" x1="-1.26763e-06" y1="86" x2="57" y2="86" gradientUnits="userSpaceOnUse">
<stop stop-color="#03A9F4"/>
<stop offset="1" stop-color="#D7A3FF"/>
</linearGradient>
<linearGradient id="paint3_linear_98_1627" x1="28.5" y1="0" x2="28.5" y2="57" gradientUnits="userSpaceOnUse">
<stop stop-color="#03A9F4"/>
<stop offset="1" stop-color="#D7A3FF"/>
</linearGradient>
</defs>
</svg>
