<svg width="253" height="337" viewBox="0 0 253 337" fill="none" xmlns="http://www.w3.org/2000/svg">
<g opacity="0.75">
<path fill-rule="evenodd" clip-rule="evenodd" d="M190.709 76.1979L185.719 83.3979L152.652 60.4807L157.642 53.2807L157.736 53.3457L201.898 24.7388L190.615 76.1328L190.709 76.1979Z" fill="#F6EFDF"/>
<path d="M40.4199 293.048C37.2739 297.587 31.0438 298.717 26.5046 295.571L9.87566 284.046C5.33641 280.9 4.20691 274.67 7.35286 270.131L17.5508 255.416L50.6178 278.333L40.4199 293.048Z" fill="#FF7E7E"/>
<path d="M50.6177 278.333L39.4176 270.571L179.508 68.4357L181.597 77.3835L190.708 76.1979L50.6177 278.333Z" fill="#FF6D00"/>
<path d="M39.418 270.571L28.7512 263.179L168.842 61.043L170.664 69.8061L179.509 68.4357L39.418 270.571Z" fill="#FF9240"/>
<path d="M28.751 263.178L17.5509 255.416L157.642 53.2807L159.73 62.2286L168.842 61.043L28.751 263.178Z" fill="#FFB37B"/>
<path d="M195.165 28.7574L200.498 32.4538L201.897 24.7389L195.165 28.7574Z" fill="black"/>
</g>
<path fill-rule="evenodd" clip-rule="evenodd" d="M129.939 179.279L132.227 183.773L111.586 194.282L109.298 189.788L109.357 189.758L106.906 159.565L129.88 179.309L129.939 179.279Z" fill="#F2EAD7"/>
<path d="M196.93 310.858C199.436 315.78 197.477 321.801 192.556 324.307L189.738 325.741C184.816 328.247 178.795 326.289 176.289 321.367L173.538 315.963L194.179 305.454L196.93 310.858Z" fill="#FF7E7E"/>
<path d="M194.179 305.454L187.188 309.014L122.948 182.839L128.054 184.222L129.939 179.279L194.179 305.454Z" fill="#79D5FF"/>
<path d="M187.188 309.013L180.529 312.403L116.289 186.229L121.229 187.696L122.948 182.839L187.188 309.013Z" fill="#31BEFF"/>
<path d="M180.529 312.403L173.538 315.963L109.298 189.788L114.404 191.171L116.289 186.229L180.529 312.403Z" fill="#0090D2"/>
<path d="M107.106 164.075L110.435 162.38L106.906 159.565L107.106 164.075Z" fill="black"/>
</svg>
