<svg width="134" height="134" viewBox="0 0 134 134" fill="none" xmlns="http://www.w3.org/2000/svg">
<path fill-rule="evenodd" clip-rule="evenodd" d="M100.823 7.24993C95.5301 4.19431 88.7626 6.00765 85.707 11.3001L70.347 37.9045L62.3961 8.23132C60.8144 2.32831 54.7468 -1.1748 48.8438 0.406906C42.9408 1.98861 39.4377 8.05618 41.0194 13.9592L48.9704 43.6329L22.3656 28.2725C17.0731 25.2169 10.3056 27.0303 7.24999 32.3228C4.19437 37.6153 6.00771 44.3827 11.3002 47.4384L37.905 62.7986L8.23138 70.7496C2.32837 72.3314 -1.17474 78.3989 0.406963 84.3019C1.98867 90.2049 8.05624 93.708 13.9592 92.1263L43.6325 84.1754L28.2724 110.78C25.2168 116.072 27.0301 122.84 32.3226 125.895C37.6151 128.951 44.3826 127.138 47.4382 121.845L62.7986 95.2402L70.7497 124.914C72.3314 130.817 78.399 134.32 84.302 132.739C90.205 131.157 93.7081 125.089 92.1264 119.186L84.1754 89.5129L110.78 104.873C116.072 107.929 122.84 106.115 125.895 100.823C128.951 95.5303 127.138 88.7628 121.845 85.7072L95.2407 70.347L124.914 62.396C130.817 60.8143 134.321 54.7467 132.739 48.8437C131.157 42.9407 125.09 39.4376 119.187 41.0193L89.5125 48.9704L104.873 22.3655C107.928 17.073 106.115 10.3055 100.823 7.24993Z" fill="#F05D5D"/>
</svg>
