<svg width="157" height="156" viewBox="0 0 157 156" fill="none" xmlns="http://www.w3.org/2000/svg">
<path d="M44.8646 8.88934C44.0923 0.61873 54.8773 -3.20388 59.4858 3.70703L75.8128 28.1906C78.5789 32.3387 84.4243 32.9735 88.0165 29.5159L109.219 9.10798C115.203 3.34749 124.916 9.39615 122.386 17.3081L113.424 45.3383C111.906 50.0873 115.054 55.0532 119.997 55.7059L149.172 59.5582C157.407 60.6456 158.734 72.0108 150.971 74.966L123.468 85.4355C118.808 87.2092 116.889 92.7668 119.46 97.0383L134.638 122.25C138.923 129.366 130.864 137.49 123.714 133.263L98.3806 118.288C94.0886 115.751 88.5467 117.715 86.8104 122.389L76.5627 149.975C73.6701 157.762 62.2946 156.526 61.1409 148.3L57.0539 119.157C56.3614 114.22 51.3703 111.112 46.6338 112.668L18.6766 121.856C10.7853 124.449 4.65861 114.785 10.3707 108.755L30.6074 87.3889C34.0359 83.7691 33.3541 77.929 29.1839 75.1963L4.5697 59.067C-2.37808 54.5142 1.3576 43.6988 9.63415 44.4045L38.9558 46.9049C43.9236 47.3285 48.0645 43.1542 47.6009 38.19L44.8646 8.88934Z" fill="url(#paint0_linear_98_1523)"/>
<defs>
<linearGradient id="paint0_linear_98_1523" x1="41.9209" y1="-22.633" x2="111.708" y2="174.263" gradientUnits="userSpaceOnUse">
<stop stop-color="#FF6D00"/>
<stop offset="1" stop-color="#F2B587"/>
</linearGradient>
</defs>
</svg>
