<svg width="97" height="97" viewBox="0 0 97 97" fill="none" xmlns="http://www.w3.org/2000/svg">
<path fill-rule="evenodd" clip-rule="evenodd" d="M48.5 0C44.1731 0 40.6654 3.50767 40.6654 7.83461V29.5855L25.2852 14.2053C22.2255 11.1457 17.2649 11.1457 14.2053 14.2053C11.1457 17.2649 11.1457 22.2255 14.2053 25.2851L29.5856 40.6654H7.83461C3.50768 40.6654 0 44.1731 0 48.5C0 52.8269 3.50767 56.3346 7.83461 56.3346H29.5856L14.2053 71.7149C11.1457 74.7745 11.1457 79.7351 14.2053 82.7947C17.265 85.8543 22.2256 85.8543 25.2852 82.7947L40.6654 67.4145V89.1654C40.6654 93.4923 44.1731 97 48.5 97C52.8269 97 56.3346 93.4923 56.3346 89.1654V67.4144L71.7149 82.7947C74.7745 85.8543 79.7351 85.8543 82.7947 82.7947C85.8543 79.7351 85.8543 74.7745 82.7947 71.7149L67.4144 56.3346H89.1654C93.4923 56.3346 97 52.8269 97 48.5C97 44.1731 93.4923 40.6654 89.1654 40.6654H67.4145L82.7947 25.2851C85.8543 22.2255 85.8543 17.2649 82.7947 14.2053C79.7351 11.1457 74.7745 11.1457 71.7149 14.2053L56.3346 29.5856V7.83461C56.3346 3.50768 52.8269 0 48.5 0Z" fill="#FFD600"/>
</svg>
