<svg width="2126" height="100" viewBox="0 0 2126 100" fill="none" xmlns="http://www.w3.org/2000/svg">
<rect x="356" width="270" height="100" fill="#262B5B"/>
<rect x="732" width="609" height="100" fill="#5C6084"/>
<rect x="626" width="106" height="100" fill="white"/>
<rect x="1341" width="439" height="100" fill="white"/>
<rect x="1779" width="347" height="100" fill="#9395AD"/>
<rect width="356" height="100" fill="#C9CAD6"/>
<path d="M434.3 61.68C434.3 65.992 433.32 69.66 431.36 72.684C429.4 75.708 426.768 78.004 423.464 79.572C420.216 81.084 416.604 81.84 412.628 81.84C408.484 81.84 404.788 81.084 401.54 79.572C398.292 78.06 395.716 75.792 393.812 72.768C391.964 69.744 391.04 66.048 391.04 61.68V21.276H398.936V61.68C398.936 66.216 400.168 69.66 402.632 72.012C405.096 74.308 408.428 75.456 412.628 75.456C416.884 75.456 420.216 74.308 422.624 72.012C425.088 69.66 426.32 66.216 426.32 61.68V21.276H434.3V61.68ZM445.878 21.276H453.858V81H445.878V21.276ZM491.226 21.276L468.21 81H460.986L484.002 21.276H491.226ZM540.613 61.68C540.613 65.992 539.633 69.66 537.673 72.684C535.713 75.708 533.081 78.004 529.777 79.572C526.529 81.084 522.917 81.84 518.941 81.84C514.797 81.84 511.101 81.084 507.853 79.572C504.605 78.06 502.029 75.792 500.125 72.768C498.277 69.744 497.353 66.048 497.353 61.68V21.276H505.249V61.68C505.249 66.216 506.481 69.66 508.945 72.012C511.409 74.308 514.741 75.456 518.941 75.456C523.197 75.456 526.529 74.308 528.937 72.012C531.401 69.66 532.633 66.216 532.633 61.68V21.276H540.613V61.68ZM594.779 21.276L575.963 50.844L595.199 81H585.791L571.175 57.648L556.475 81H547.067L566.387 50.844L547.487 21.276H556.895L571.175 44.208L585.455 21.276H594.779Z" fill="white"/>
<path d="M808.7 54.86C808.7 62.5133 807.3 68.0667 804.5 71.52C801.7 74.9733 797.733 76.7 792.6 76.7C787.467 76.7 783.453 74.9733 780.56 71.52C777.713 68.02 776.29 62.4667 776.29 54.86V46.88C776.29 39.2267 777.69 33.72 780.49 30.36C783.337 26.9533 787.35 25.25 792.53 25.25C797.71 25.25 801.7 26.9533 804.5 30.36C807.3 33.72 808.7 39.2267 808.7 46.88V54.86ZM801.07 45.69C801.07 40.6033 800.347 36.9633 798.9 34.77C797.5 32.53 795.377 31.41 792.53 31.41C789.637 31.41 787.467 32.53 786.02 34.77C784.62 36.9633 783.92 40.6033 783.92 45.69V55.98C783.92 61.0667 784.643 64.7767 786.09 67.11C787.583 69.4433 789.753 70.61 792.6 70.61C795.447 70.61 797.57 69.4433 798.97 67.11C800.37 64.7767 801.07 61.0667 801.07 55.98V45.69ZM829.883 35.4L820.503 40.37V33.37L833.593 25.74H837.513V76H829.883V35.4ZM886.766 54.86C886.766 62.5133 885.366 68.0667 882.566 71.52C879.766 74.9733 875.8 76.7 870.666 76.7C865.533 76.7 861.52 74.9733 858.626 71.52C855.78 68.02 854.356 62.4667 854.356 54.86V46.88C854.356 39.2267 855.756 33.72 858.556 30.36C861.403 26.9533 865.416 25.25 870.596 25.25C875.776 25.25 879.766 26.9533 882.566 30.36C885.366 33.72 886.766 39.2267 886.766 46.88V54.86ZM879.136 45.69C879.136 40.6033 878.413 36.9633 876.966 34.77C875.566 32.53 873.443 31.41 870.596 31.41C867.703 31.41 865.533 32.53 864.086 34.77C862.686 36.9633 861.986 40.6033 861.986 45.69V55.98C861.986 61.0667 862.71 64.7767 864.156 67.11C865.65 69.4433 867.82 70.61 870.666 70.61C873.513 70.61 875.636 69.4433 877.036 67.11C878.436 64.7767 879.136 61.0667 879.136 55.98V45.69ZM907.911 48.07H925.621V54.16H907.911V48.07ZM971.352 54.86C968.692 57.8 965.168 59.27 960.782 59.27C957.655 59.27 955.018 58.5 952.872 56.96C950.772 55.42 949.185 53.39 948.112 50.87C947.085 48.3033 946.572 45.5267 946.572 42.54C946.572 39.32 947.202 36.4267 948.462 33.86C949.722 31.2467 951.542 29.1933 953.922 27.7C956.348 26.2067 959.218 25.46 962.532 25.46C965.985 25.46 968.948 26.37 971.422 28.19C973.942 29.9633 975.855 32.3433 977.162 35.33C978.468 38.3167 979.122 41.5367 979.122 44.99V54.86C979.122 59.1533 978.468 62.9567 977.162 66.27C975.855 69.5833 973.918 72.1967 971.352 74.11C968.832 75.9767 965.775 76.91 962.182 76.91C959.615 76.91 957.258 76.3733 955.112 75.3C952.965 74.2267 951.215 72.78 949.862 70.96C948.555 69.14 947.832 67.18 947.692 65.08H955.042C955.415 66.5267 956.208 67.8567 957.422 69.07C958.635 70.2367 960.338 70.82 962.532 70.82C965.658 70.82 967.898 69.49 969.252 66.83C970.652 64.1233 971.352 60.1333 971.352 54.86ZM971.492 44.36C971.492 41.7 971.095 39.4133 970.302 37.5C969.508 35.54 968.435 34.07 967.082 33.09C965.728 32.11 964.235 31.62 962.602 31.62C959.942 31.62 957.865 32.6233 956.372 34.63C954.878 36.59 954.132 39.18 954.132 42.4C954.132 45.4333 954.855 47.9767 956.302 50.03C957.795 52.0833 959.895 53.11 962.602 53.11C964.608 53.11 966.428 52.5267 968.062 51.36C969.695 50.1933 970.838 48.7233 971.492 46.95V44.36ZM993.445 47.3C996.011 44.4067 999.511 42.96 1003.94 42.96C1007.07 42.96 1009.71 43.73 1011.85 45.27C1014 46.81 1015.59 48.84 1016.61 51.36C1017.69 53.88 1018.22 56.6333 1018.22 59.62C1018.22 62.84 1017.59 65.7567 1016.33 68.37C1015.07 70.9367 1013.23 72.9667 1010.8 74.46C1008.38 75.9533 1005.51 76.7 1002.19 76.7C998.741 76.7 995.755 75.8133 993.235 74.04C990.761 72.22 988.871 69.84 987.565 66.9C986.258 63.9133 985.605 60.6933 985.605 57.24V47.3C985.605 43.0533 986.258 39.2733 987.565 35.96C988.871 32.6 990.808 29.9867 993.375 28.12C995.941 26.2067 999.021 25.25 1002.61 25.25C1005.18 25.25 1007.54 25.7867 1009.68 26.86C1011.83 27.9333 1013.56 29.38 1014.86 31.2C1016.22 33.02 1016.96 35.0033 1017.1 37.15H1009.68C1009.31 35.7033 1008.52 34.3967 1007.3 33.23C1006.14 32.0167 1004.46 31.41 1002.26 31.41C999.138 31.41 996.875 32.74 995.475 35.4C994.121 38.06 993.445 42.0267 993.445 47.3ZM993.235 57.8C993.235 60.46 993.631 62.77 994.425 64.73C995.265 66.6433 996.361 68.09 997.715 69.07C999.068 70.05 1000.54 70.54 1002.12 70.54C1004.78 70.54 1006.86 69.56 1008.35 67.6C1009.89 65.5933 1010.66 63.0033 1010.66 59.83C1010.66 56.7967 1009.92 54.2533 1008.42 52.2C1006.93 50.1467 1004.85 49.12 1002.19 49.12C1000.19 49.12 998.368 49.7033 996.735 50.87C995.101 51.99 993.935 53.4367 993.235 55.21V57.8ZM1057.12 54.86C1057.12 62.5133 1055.72 68.0667 1052.92 71.52C1050.12 74.9733 1046.15 76.7 1041.02 76.7C1035.88 76.7 1031.87 74.9733 1028.98 71.52C1026.13 68.02 1024.71 62.4667 1024.71 54.86V46.88C1024.71 39.2267 1026.11 33.72 1028.91 30.36C1031.75 26.9533 1035.77 25.25 1040.95 25.25C1046.13 25.25 1050.12 26.9533 1052.92 30.36C1055.72 33.72 1057.12 39.2267 1057.12 46.88V54.86ZM1049.49 45.69C1049.49 40.6033 1048.76 36.9633 1047.32 34.77C1045.92 32.53 1043.79 31.41 1040.95 31.41C1038.05 31.41 1035.88 32.53 1034.44 34.77C1033.04 36.9633 1032.34 40.6033 1032.34 45.69V55.98C1032.34 61.0667 1033.06 64.7767 1034.51 67.11C1036 69.4433 1038.17 70.61 1041.02 70.61C1043.86 70.61 1045.99 69.4433 1047.39 67.11C1048.79 64.7767 1049.49 61.0667 1049.49 55.98V45.69ZM1096.15 54.86C1096.15 62.5133 1094.75 68.0667 1091.95 71.52C1089.15 74.9733 1085.18 76.7 1080.05 76.7C1074.92 76.7 1070.9 74.9733 1068.01 71.52C1065.16 68.02 1063.74 62.4667 1063.74 54.86V46.88C1063.74 39.2267 1065.14 33.72 1067.94 30.36C1070.79 26.9533 1074.8 25.25 1079.98 25.25C1085.16 25.25 1089.15 26.9533 1091.95 30.36C1094.75 33.72 1096.15 39.2267 1096.15 46.88V54.86ZM1088.52 45.69C1088.52 40.6033 1087.8 36.9633 1086.35 34.77C1084.95 32.53 1082.83 31.41 1079.98 31.41C1077.09 31.41 1074.92 32.53 1073.47 34.77C1072.07 36.9633 1071.37 40.6033 1071.37 45.69V55.98C1071.37 61.0667 1072.09 64.7767 1073.54 67.11C1075.03 69.4433 1077.2 70.61 1080.05 70.61C1082.9 70.61 1085.02 69.4433 1086.42 67.11C1087.82 64.7767 1088.52 61.0667 1088.52 55.98V45.69ZM1117.3 48.07H1135.01V54.16H1117.3V48.07ZM1147.87 76L1168.03 32.04H1141.78V25.95H1176.15V30.15L1155.92 76H1147.87ZM1181.87 70.68L1198.18 52.76C1200.93 49.7267 1202.82 47.2533 1203.85 45.34C1204.92 43.4267 1205.46 41.56 1205.46 39.74C1205.46 37.2667 1204.76 35.26 1203.36 33.72C1201.96 32.18 1200.02 31.41 1197.55 31.41C1194.61 31.41 1192.37 32.2967 1190.83 34.07C1189.29 35.7967 1188.52 38.1067 1188.52 41H1180.89C1180.89 38.06 1181.54 35.4 1182.85 33.02C1184.2 30.64 1186.14 28.75 1188.66 27.35C1191.18 25.95 1194.16 25.25 1197.62 25.25C1202.47 25.25 1206.25 26.4867 1208.96 28.96C1211.71 31.3867 1213.09 34.7 1213.09 38.9C1213.09 41.7467 1212.22 44.64 1210.5 47.58C1208.77 50.52 1206.32 53.67 1203.15 57.03L1191.32 69.91H1215.19V76H1181.87V70.68ZM1241.06 64.59H1219.01L1218.87 60.04L1240.78 25.95H1248.69V58.5H1255.2V64.59H1248.69V76H1241.06V64.59ZM1241.06 36.24L1240.36 37.5L1226.99 58.5H1241.06V36.24ZM1274.42 35.4L1265.04 40.37V33.37L1278.13 25.74H1282.05V76H1274.42V35.4Z" fill="white"/>
<path fill-rule="evenodd" clip-rule="evenodd" d="M191.72 34.8768L178 19.2842L164.28 34.876L126.001 23.3986L140.516 38.9288L87.9324 34.6417L126.793 45.9475L74 49.9998L126.796 54.0522L87.9337 65.3584L140.514 61.0716L126 76.6012L164.28 65.1234L178.001 80.7164L191.722 65.1235L230.001 76.6006L215.486 61.0708L268.067 65.3576L229.206 54.052L282 49.9997L229.207 45.9474L268.067 34.6418L215.486 38.9287L230.001 23.3991L191.72 34.8768Z" fill="#5C6084"/>
<circle cx="679" cy="51" r="26" fill="#262B5B"/>
<path d="M660.745 39.3828L669.596 45.1913L660.745 50.9998" stroke="white" stroke-width="3" stroke-linecap="round"/>
<path d="M695.596 51L686.745 45.1915L695.596 39.383" stroke="white" stroke-width="3" stroke-linecap="round"/>
<path fill-rule="evenodd" clip-rule="evenodd" d="M660.745 54.8721C661.836 62.5639 669.409 68.5201 678.589 68.5201C687.769 68.5201 695.342 62.5639 696.433 54.8721H660.745Z" fill="white"/>
<path d="M1443 20.313L1472.73 32.5219L1502.45 20.313L1489.45 50.0391L1502.45 79.7652L1472.73 66.4946L1443 79.7652L1454.94 50.0391L1443 20.313Z" fill="#262B5B"/>
<path d="M1537 50.0391L1553.24 43.2547L1560.03 27.0132L1566.5 43.563L1583.05 50.0391L1566.4 56.4123L1560.03 73.0649L1553.14 56.9263L1537 50.0391Z" fill="#262B5B"/>
<path d="M1362 50.0391L1378.24 43.2547L1385.03 27.0132L1391.5 43.563L1408.05 50.0391L1391.4 56.4123L1385.03 73.0649L1378.14 56.9263L1362 50.0391Z" fill="#262B5B"/>
<path d="M1712 50.0391L1728.24 43.2547L1735.03 27.0132L1741.5 43.563L1758.05 50.0391L1741.4 56.4123L1735.03 73.0649L1728.14 56.9263L1712 50.0391Z" fill="#262B5B"/>
<path d="M1618 20.313L1647.73 32.5219L1677.45 20.313L1664.45 50.0391L1677.45 79.7652L1647.73 66.4946L1618 79.7652L1629.94 50.0391L1618 20.313Z" fill="#262B5B"/>
<path d="M1816.2 38.032H1804.59V30.688H1837.05V38.032H1825.33V70H1816.2V38.032ZM1840.34 30.688H1849.47V46.24H1863.94V30.688H1873.07V70H1863.94V53.584H1849.47V70H1840.34V30.688ZM1889.97 30.688H1898.4L1912.98 70H1903.31L1900.88 62.548H1887.44L1885.06 70H1875.34L1889.97 30.688ZM1894.19 41.812L1889.87 55.258H1898.45L1894.19 41.812ZM1924.35 45.646V70H1915.28V30.688H1924.35L1938.88 55.042V30.688H1947.9V70H1938.82L1924.35 45.646ZM1953.41 30.688H1962.53V47.806L1965.83 43.054L1974.79 30.688H1986.02L1972.52 48.076L1986.19 70H1975.33L1966.58 55.042L1962.53 59.362V70H1953.41V30.688ZM2029.76 30.688L2017.13 55.906V70H2007.89V55.906L1995.2 30.688H2005.03L2012.48 47.644L2019.94 30.688H2029.76ZM2063.92 50.992C2063.92 54.988 2063.2 58.462 2061.76 61.414C2060.36 64.366 2058.36 66.634 2055.77 68.218C2053.21 69.766 2050.28 70.54 2046.96 70.54C2043.62 70.54 2040.65 69.766 2038.05 68.218C2035.5 66.634 2033.48 64.366 2032.01 61.414C2030.57 58.462 2029.85 54.988 2029.85 50.992V49.696C2029.85 45.736 2030.57 42.28 2032.01 39.328C2033.45 36.376 2035.46 34.108 2038.05 32.524C2040.65 30.94 2043.6 30.148 2046.91 30.148C2050.22 30.148 2053.16 30.94 2055.71 32.524C2058.3 34.108 2060.32 36.376 2061.76 39.328C2063.2 42.28 2063.92 45.736 2063.92 49.696V50.992ZM2054.74 49.642C2054.74 45.718 2054.06 42.748 2052.69 40.732C2051.36 38.68 2049.43 37.654 2046.91 37.654C2044.35 37.654 2042.41 38.68 2041.08 40.732C2039.78 42.748 2039.13 45.718 2039.13 49.642V50.992C2039.13 54.916 2039.8 57.922 2041.13 60.01C2042.46 62.098 2044.41 63.142 2046.96 63.142C2049.45 63.142 2051.36 62.098 2052.69 60.01C2054.06 57.922 2054.74 54.916 2054.74 50.992V49.642ZM2098.82 56.392C2098.82 59.38 2098.18 61.936 2096.88 64.06C2095.62 66.184 2093.84 67.804 2091.53 68.92C2089.23 70 2086.57 70.54 2083.54 70.54C2080.48 70.54 2077.78 70 2075.44 68.92C2073.14 67.804 2071.34 66.184 2070.04 64.06C2068.75 61.936 2068.1 59.38 2068.1 56.392V30.688H2077.22V56.392C2077.22 58.804 2077.75 60.55 2078.79 61.63C2079.83 62.71 2081.42 63.25 2083.54 63.25C2085.59 63.25 2087.12 62.71 2088.13 61.63C2089.18 60.55 2089.7 58.804 2089.7 56.392V30.688H2098.82V56.392Z" fill="#262B5B"/>
</svg>
