<svg width="2126" height="131" viewBox="0 0 2126 131" fill="none" xmlns="http://www.w3.org/2000/svg">
<rect x="126" width="441" height="131" fill="white"/>
<rect x="567" width="126" height="131" fill="#262B5B"/>
<rect x="693" width="439" height="131" fill="#9395AD"/>
<path d="M1321 0H1922V131H1321V0Z" fill="#5C6084"/>
<rect x="1132" width="189" height="131" fill="#262B5B"/>
<rect width="126" height="131" fill="#5C6084"/>
<path d="M163.64 44.336H144.29V36.51H192.708V44.336H173.272V98H163.64V44.336ZM198.625 36.51H207.999V57.494C209.604 55.5447 211.496 54.054 213.675 53.022C215.911 51.99 218.347 51.474 220.985 51.474C230.846 51.474 235.777 57.1213 235.777 68.416V98H226.403V68.33C226.403 65.062 225.686 62.74 224.253 61.364C222.877 59.9307 220.784 59.214 217.975 59.214C215.739 59.214 213.761 59.7587 212.041 60.848C210.378 61.9373 209.031 63.428 207.999 65.32V98H198.625V36.51ZM271.468 66.954C271.468 64.374 270.723 62.3387 269.232 60.848C267.741 59.3573 265.591 58.612 262.782 58.612C260.202 58.612 258.109 59.2713 256.504 60.59C254.956 61.8513 254.182 63.428 254.182 65.32H244.722C244.722 62.9693 245.496 60.7333 247.044 58.612C248.592 56.4333 250.771 54.7133 253.58 53.452C256.389 52.1333 259.629 51.474 263.298 51.474C268.63 51.474 272.873 52.8213 276.026 55.516C279.237 58.1533 280.842 61.9947 280.842 67.04V87.68C280.842 91.636 281.415 94.8467 282.562 97.312V98H272.844C272.443 97.0827 272.07 95.5633 271.726 93.442C270.235 95.0473 268.429 96.366 266.308 97.398C264.187 98.3727 261.836 98.86 259.256 98.86C256.217 98.86 253.523 98.2867 251.172 97.14C248.879 95.936 247.073 94.302 245.754 92.238C244.435 90.174 243.776 87.852 243.776 85.272C243.776 80.3987 245.582 76.672 249.194 74.092C252.863 71.512 257.966 70.222 264.502 70.222H271.468V66.954ZM260.89 91.206C263.298 91.206 265.419 90.6327 267.254 89.486C269.146 88.282 270.551 86.82 271.468 85.1V76.242H265.534C261.521 76.242 258.453 76.93 256.332 78.306C254.211 79.682 253.15 81.66 253.15 84.24C253.15 86.304 253.838 87.9953 255.214 89.314C256.59 90.5753 258.482 91.206 260.89 91.206ZM290.671 52.334H299.529L299.873 57.838C301.479 55.774 303.428 54.1973 305.721 53.108C308.015 52.0187 310.537 51.474 313.289 51.474C317.933 51.474 321.517 52.8213 324.039 55.516C326.562 58.1533 327.823 62.4247 327.823 68.33V98H318.449V68.244C318.449 64.976 317.761 62.654 316.385 61.278C315.009 59.902 312.888 59.214 310.021 59.214C307.785 59.214 305.807 59.7873 304.087 60.934C302.425 62.0233 301.077 63.514 300.045 65.406V98H290.671V52.334ZM337.455 36.51H346.743V71.168L350.355 66.868L363.599 52.334H374.951L357.579 71.34L376.843 98H365.835L351.473 77.79L346.743 82.606V98H337.455V36.51ZM414.198 105.052C411.446 112.62 406.802 116.404 400.266 116.404C399.004 116.404 397.428 116.203 395.536 115.802V108.492L397.514 108.578C400.094 108.578 402.072 108.091 403.448 107.116C404.881 106.141 405.97 104.421 406.716 101.956L408.35 97.742L392.182 52.334H402.33L412.65 84.412L422.54 52.334H432.516L414.198 105.052ZM435.416 74.694C435.416 70.2793 436.247 66.3233 437.91 62.826C439.63 59.2713 442.067 56.4907 445.22 54.484C448.431 52.4773 452.186 51.474 456.486 51.474C460.786 51.474 464.541 52.4773 467.752 54.484C470.963 56.4907 473.399 59.2713 475.062 62.826C476.782 66.3233 477.642 70.2793 477.642 74.694V75.64C477.642 80.0547 476.782 84.0393 475.062 87.594C473.399 91.0913 470.963 93.8433 467.752 95.85C464.599 97.8567 460.872 98.86 456.572 98.86C452.272 98.86 448.517 97.8567 445.306 95.85C442.095 93.8433 439.63 91.0913 437.91 87.594C436.247 84.0393 435.416 80.0547 435.416 75.64V74.694ZM444.79 75.64C444.79 80.1693 445.793 83.9247 447.8 86.906C449.807 89.8873 452.731 91.378 456.572 91.378C460.356 91.378 463.251 89.8873 465.258 86.906C467.265 83.9247 468.268 80.1693 468.268 75.64V74.694C468.268 70.222 467.236 66.4953 465.172 63.514C463.165 60.4753 460.27 58.956 456.486 58.956C452.702 58.956 449.807 60.4467 447.8 63.428C445.793 66.4093 444.79 70.1647 444.79 74.694V75.64ZM522.245 98H513.387L513.129 93.442C510.148 97.054 505.819 98.86 500.143 98.86C495.385 98.86 491.658 97.484 488.963 94.732C486.326 91.9227 485.007 87.594 485.007 81.746V52.334H494.467V81.832C494.467 85.1573 495.184 87.5367 496.617 88.97C498.051 90.4033 499.885 91.12 502.121 91.12C507.453 91.12 511.037 89.1707 512.871 85.272V52.334H522.245V98ZM532.395 93.27C532.395 91.722 532.882 90.432 533.857 89.4C534.831 88.368 536.179 87.852 537.899 87.852C539.619 87.852 540.966 88.368 541.941 89.4C542.973 90.432 543.489 91.722 543.489 93.27C543.489 94.7607 543.001 95.9933 542.027 96.968C541.052 97.9427 539.676 98.43 537.899 98.43C536.179 98.43 534.831 97.9427 533.857 96.968C532.882 95.9933 532.395 94.7607 532.395 93.27Z" fill="#262B5B"/>
<path d="M745.5 76.825L756.825 38.125H761.1L772.2 76.825L774.15 84.25L775.8 76.45L785.25 38.125H790.05L776.625 91H772.05L760.2 49.975L759 45.325L757.65 49.975L745.575 91H741.075L727.65 38.125H732.525L741.975 76.45L743.625 84.175L745.5 76.825ZM808.579 91.75C805.179 91.75 802.129 90.925 799.429 89.275C796.779 87.575 794.679 85.225 793.129 82.225C791.629 79.175 790.879 75.7 790.879 71.8C790.879 67.6 791.654 63.925 793.204 60.775C794.754 57.625 796.804 55.225 799.354 53.575C801.954 51.875 804.754 51.025 807.754 51.025C812.704 51.025 816.554 52.7 819.304 56.05C822.054 59.35 823.429 63.7 823.429 69.1V71.8H795.604C795.604 74.85 796.154 77.6 797.254 80.05C798.354 82.5 799.904 84.425 801.904 85.825C803.904 87.175 806.204 87.85 808.804 87.85C813.304 87.85 816.929 86.075 819.679 82.525L822.604 84.7C821.204 86.8 819.354 88.5 817.054 89.8C814.754 91.1 811.929 91.75 808.579 91.75ZM807.754 54.85C804.554 54.85 801.854 56.05 799.654 58.45C797.504 60.8 796.204 63.95 795.754 67.9H818.779V67.45C818.679 63.95 817.679 60.975 815.779 58.525C813.879 56.075 811.204 54.85 807.754 54.85ZM862.508 71.8C862.508 75.7 861.908 79.175 860.708 82.225C859.558 85.225 857.833 87.575 855.533 89.275C853.283 90.925 850.608 91.75 847.508 91.75C844.758 91.75 842.333 91.225 840.233 90.175C838.133 89.125 836.433 87.65 835.133 85.75L834.983 91H830.633V38.125H835.283V57.25C837.983 53.1 842.033 51.025 847.433 51.025C852.183 51.025 855.883 52.825 858.533 56.425C861.183 59.975 862.508 64.825 862.508 70.975V71.8ZM857.858 70.975C857.858 66.175 856.908 62.325 855.008 59.425C853.158 56.475 850.308 55 846.458 55C843.508 55 841.133 55.75 839.333 57.25C837.533 58.7 836.183 60.575 835.283 62.875V80.425C836.233 82.625 837.633 84.4 839.483 85.75C841.383 87.05 843.733 87.7 846.533 87.7C850.283 87.7 853.108 86.225 855.008 83.275C856.908 80.325 857.858 76.5 857.858 71.8V70.975ZM900.217 38.125C904.617 38.125 908.542 39.125 911.992 41.125C915.442 43.125 918.117 45.95 920.017 49.6C921.967 53.25 922.942 57.475 922.942 62.275V66.925C922.942 71.725 921.967 75.95 920.017 79.6C918.117 83.25 915.417 86.075 911.917 88.075C908.417 90.025 904.417 91 899.917 91H885.517V38.125H900.217ZM890.242 87.025H899.917C903.617 87.025 906.842 86.2 909.592 84.55C912.342 82.85 914.467 80.475 915.967 77.425C917.467 74.375 918.217 70.875 918.217 66.925V62.2C918.217 58.15 917.467 54.625 915.967 51.625C914.517 48.625 912.417 46.3 909.667 44.65C906.967 43 903.817 42.175 900.217 42.175H890.242V87.025ZM947.153 91.75C943.753 91.75 940.703 90.925 938.003 89.275C935.353 87.575 933.253 85.225 931.703 82.225C930.203 79.175 929.453 75.7 929.453 71.8C929.453 67.6 930.228 63.925 931.778 60.775C933.328 57.625 935.378 55.225 937.928 53.575C940.528 51.875 943.328 51.025 946.328 51.025C951.278 51.025 955.128 52.7 957.878 56.05C960.628 59.35 962.003 63.7 962.003 69.1V71.8H934.178C934.178 74.85 934.728 77.6 935.828 80.05C936.928 82.5 938.478 84.425 940.478 85.825C942.478 87.175 944.778 87.85 947.378 87.85C951.878 87.85 955.503 86.075 958.253 82.525L961.178 84.7C959.778 86.8 957.928 88.5 955.628 89.8C953.328 91.1 950.503 91.75 947.153 91.75ZM946.328 54.85C943.128 54.85 940.428 56.05 938.228 58.45C936.078 60.8 934.778 63.95 934.328 67.9H957.353V67.45C957.253 63.95 956.253 60.975 954.353 58.525C952.453 56.075 949.778 54.85 946.328 54.85ZM992.757 80.95C992.757 79.15 992.007 77.575 990.507 76.225C989.057 74.825 986.357 73.7 982.407 72.85C977.757 71.9 974.282 70.6 971.982 68.95C969.732 67.25 968.607 64.85 968.607 61.75C968.607 59.8 969.182 58 970.332 56.35C971.482 54.7 973.107 53.4 975.207 52.45C977.357 51.5 979.807 51.025 982.557 51.025C985.557 51.025 988.132 51.55 990.282 52.6C992.482 53.6 994.157 55 995.307 56.8C996.507 58.55 997.107 60.55 997.107 62.8H992.532C992.532 61.45 992.132 60.175 991.332 58.975C990.532 57.725 989.382 56.725 987.882 55.975C986.382 55.225 984.607 54.85 982.557 54.85C979.507 54.85 977.182 55.525 975.582 56.875C974.032 58.225 973.257 59.8 973.257 61.6C973.257 62.85 973.532 63.9 974.082 64.75C974.632 65.6 975.632 66.375 977.082 67.075C978.582 67.775 980.732 68.45 983.532 69.1C988.382 70.2 991.882 71.65 994.032 73.45C996.232 75.2 997.332 77.625 997.332 80.725C997.332 84.025 996.007 86.7 993.357 88.75C990.707 90.75 987.182 91.75 982.782 91.75C979.582 91.75 976.807 91.2 974.457 90.1C972.157 89 970.382 87.55 969.132 85.75C967.932 83.9 967.332 81.925 967.332 79.825H971.982C972.132 82.625 973.257 84.675 975.357 85.975C977.457 87.225 979.932 87.85 982.782 87.85C985.882 87.85 988.307 87.175 990.057 85.825C991.857 84.475 992.757 82.85 992.757 80.95ZM1005.6 40.45C1005.6 39.6 1005.88 38.875 1006.43 38.275C1007.03 37.675 1007.8 37.375 1008.75 37.375C1009.7 37.375 1010.45 37.675 1011 38.275C1011.55 38.875 1011.83 39.6 1011.83 40.45C1011.83 41.35 1011.55 42.075 1011 42.625C1010.45 43.175 1009.7 43.45 1008.75 43.45C1007.75 43.45 1006.98 43.175 1006.43 42.625C1005.88 42.075 1005.6 41.35 1005.6 40.45ZM1006.28 51.775H1011V91H1006.28V51.775ZM1019.78 70.975C1019.78 64.875 1021.13 60.025 1023.83 56.425C1026.53 52.825 1030.25 51.025 1035 51.025C1040.3 51.025 1044.33 53.125 1047.08 57.325L1047.3 51.775H1051.58V90.325C1051.58 95.375 1050.13 99.35 1047.23 102.25C1044.38 105.15 1040.55 106.6 1035.75 106.6C1033.15 106.6 1030.58 106.025 1028.03 104.875C1025.48 103.725 1023.45 102.075 1021.95 99.925L1024.5 97.075C1027.5 100.875 1031.15 102.775 1035.45 102.775C1039.1 102.775 1041.93 101.675 1043.93 99.475C1045.93 97.325 1046.93 94.325 1046.93 90.475V86.05C1045.63 87.85 1043.95 89.25 1041.9 90.25C1039.9 91.25 1037.58 91.75 1034.93 91.75C1031.83 91.75 1029.13 90.925 1026.83 89.275C1024.58 87.575 1022.83 85.225 1021.58 82.225C1020.38 79.175 1019.78 75.7 1019.78 71.8V70.975ZM1024.43 71.8C1024.43 76.5 1025.38 80.325 1027.28 83.275C1029.23 86.225 1032.08 87.7 1035.83 87.7C1038.63 87.7 1040.95 87.05 1042.8 85.75C1044.65 84.45 1046.03 82.725 1046.93 80.575V62.65C1044.83 57.55 1041.15 55 1035.9 55C1032.15 55 1029.3 56.475 1027.35 59.425C1025.4 62.375 1024.43 66.225 1024.43 70.975V71.8ZM1061.57 51.775H1066.07L1066.22 58.45C1067.52 56.2 1069.27 54.4 1071.47 53.05C1073.72 51.7 1076.19 51.025 1078.89 51.025C1082.94 51.025 1086.04 52.175 1088.19 54.475C1090.34 56.775 1091.42 60.425 1091.42 65.425V91H1086.77V65.35C1086.77 61.65 1085.99 59 1084.44 57.4C1082.89 55.8 1080.64 55 1077.69 55C1074.84 55 1072.44 55.9 1070.49 57.7C1068.54 59.5 1067.14 61.675 1066.29 64.225V91H1061.57V51.775Z" fill="white"/>
<path d="M1380.3 49.954L1370.05 67.642L1380.7 86H1370.32L1363.95 74.744L1357.59 86H1347.13L1357.85 67.642L1347.6 49.954H1357.99L1363.88 60.674L1369.91 49.954H1380.3ZM1403.34 61.947C1403.34 60.205 1402.9 58.8427 1402 57.86C1401.11 56.8773 1399.79 56.386 1398.05 56.386C1396.44 56.386 1395.19 56.788 1394.3 57.592C1393.4 58.3513 1392.96 59.401 1392.96 60.741H1383.24C1383.24 58.6417 1383.87 56.721 1385.12 54.979C1386.41 53.237 1388.22 51.8523 1390.55 50.825C1392.87 49.7977 1395.55 49.284 1398.59 49.284C1402.92 49.284 1406.4 50.3783 1409.04 52.567C1411.72 54.7557 1413.06 57.9047 1413.06 62.014V77.223C1413.06 79.1883 1413.17 80.7963 1413.39 82.047C1413.66 83.2977 1414.04 84.4367 1414.53 85.464V86H1404.68C1404.41 85.3747 1404.1 84.3027 1403.74 82.784C1401.38 85.3747 1398.36 86.67 1394.7 86.67C1392.38 86.67 1390.28 86.2233 1388.4 85.33C1386.57 84.392 1385.12 83.0967 1384.05 81.444C1382.97 79.7913 1382.44 77.9377 1382.44 75.883C1382.44 72.0417 1383.85 69.116 1386.66 67.106C1389.52 65.0513 1393.67 64.024 1399.12 64.024H1403.34V61.947ZM1396.84 79.3C1398.32 79.3 1399.61 78.965 1400.73 78.295C1401.89 77.5803 1402.76 76.7317 1403.34 75.749V69.652H1399.46C1397 69.652 1395.17 70.1657 1393.96 71.193C1392.76 72.1757 1392.15 73.4933 1392.15 75.146C1392.15 76.352 1392.58 77.357 1393.43 78.161C1394.27 78.9203 1395.41 79.3 1396.84 79.3ZM1418.3 80.104L1435.18 57.726H1418.7V49.954H1447.58V55.716L1430.56 78.228H1448.25V86H1418.3V80.104ZM1467.94 78.898C1469.73 78.898 1471.16 78.4067 1472.23 77.424C1473.35 76.3967 1473.95 75.079 1474.04 73.471H1483.15C1483.15 75.9723 1482.48 78.228 1481.14 80.238C1479.8 82.248 1477.99 83.8337 1475.71 84.995C1473.44 86.1117 1470.93 86.67 1468.21 86.67C1464.59 86.67 1461.53 85.8883 1459.03 84.325C1456.53 82.717 1454.65 80.5507 1453.4 77.826C1452.15 75.1013 1451.53 71.997 1451.53 68.513V67.508C1451.53 64.024 1452.15 60.9197 1453.4 58.195C1454.65 55.4257 1456.53 53.2593 1459.03 51.696C1461.53 50.088 1464.57 49.284 1468.14 49.284C1471.09 49.284 1473.68 49.8647 1475.92 51.026C1478.19 52.1427 1479.96 53.773 1481.21 55.917C1482.5 58.0163 1483.15 60.4953 1483.15 63.354H1474.04C1473.95 61.5227 1473.37 60.0263 1472.3 58.865C1471.27 57.7037 1469.8 57.123 1467.88 57.123C1465.37 57.123 1463.63 58.0833 1462.65 60.004C1461.67 61.88 1461.18 64.3813 1461.18 67.508V68.513C1461.18 71.6843 1461.64 74.208 1462.58 76.084C1463.56 77.96 1465.35 78.898 1467.94 78.898ZM1505.84 86H1496.53L1484.33 49.954H1494.52L1501.15 74.007L1507.78 49.954H1517.9L1505.84 86ZM1581.22 58.731C1581.22 62.2597 1580.66 65.632 1579.54 68.848C1578.47 72.064 1576.73 74.6993 1574.32 76.754C1571.9 78.8087 1568.84 79.836 1565.14 79.836C1563.31 79.836 1561.65 79.4787 1560.18 78.764C1558.75 78.0047 1557.57 76.9103 1556.63 75.481C1554.31 78.3397 1551.29 79.769 1547.58 79.769C1544.28 79.769 1541.62 78.5183 1539.61 76.017C1537.65 73.5157 1536.66 70.2103 1536.66 66.101C1536.66 65.6097 1536.71 64.828 1536.8 63.756C1537.24 59.87 1538.27 56.453 1539.88 53.505C1541.49 50.557 1543.5 48.3013 1545.91 46.738C1548.32 45.13 1550.93 44.326 1553.75 44.326C1555.53 44.326 1557.08 44.5047 1558.37 44.862C1559.71 45.2193 1560.83 45.6437 1561.72 46.135C1562.61 46.5817 1563.8 47.2963 1565.27 48.279L1563.46 68.178C1563.42 68.446 1563.4 68.8257 1563.4 69.317C1563.4 70.5677 1563.66 71.4387 1564.2 71.93C1564.74 72.3767 1565.47 72.6 1566.41 72.6C1568.6 72.6 1570.34 71.3047 1571.64 68.714C1572.93 66.0787 1573.58 62.751 1573.58 58.731C1573.58 54.7557 1572.82 51.1823 1571.3 48.011C1569.83 44.795 1567.53 42.249 1564.4 40.373C1561.32 38.4523 1557.5 37.492 1552.94 37.492C1548.39 37.492 1544.41 38.564 1541.02 40.708C1537.67 42.852 1535.03 45.8 1533.11 49.552C1531.24 53.2593 1530.16 57.4357 1529.9 62.081L1529.83 63.622C1529.83 67.9993 1530.79 71.93 1532.71 75.414C1534.67 78.898 1537.24 81.6227 1540.41 83.588C1543.63 85.5533 1547.07 86.536 1550.73 86.536C1552.83 86.536 1555 86.2903 1557.23 85.799C1559.51 85.3077 1561.34 84.7047 1562.73 83.99L1564.4 90.891C1562.75 92.0077 1560.65 92.834 1558.1 93.37C1555.56 93.9507 1553.06 94.241 1550.6 94.241C1545.24 94.241 1540.28 92.8563 1535.72 90.087C1531.21 87.3177 1527.66 83.4987 1525.07 78.63C1522.48 73.7167 1521.34 68.2003 1521.65 62.081C1521.97 56.1403 1523.44 50.7357 1526.08 45.867C1528.76 40.9983 1532.42 37.157 1537.06 34.343C1541.71 31.529 1547.05 30.122 1553.08 30.122C1558.88 30.122 1563.91 31.4173 1568.15 34.008C1572.4 36.5987 1575.63 40.0827 1577.87 44.46C1580.1 48.7927 1581.22 53.5497 1581.22 58.731ZM1545.84 66.168C1545.84 68.0887 1546.18 69.518 1546.85 70.456C1547.56 71.3493 1548.63 71.796 1550.06 71.796C1551 71.796 1551.92 71.4387 1552.81 70.724C1553.7 70.0093 1554.46 68.7587 1555.09 66.972L1556.49 52.299C1555.69 52.1203 1555.02 52.031 1554.48 52.031C1551.98 52.031 1550.04 53.0137 1548.66 54.979C1547.32 56.9443 1546.42 59.9593 1545.98 64.024L1545.84 66.168ZM1587.85 49.954H1596.96L1597.3 54.108C1598.55 52.5447 1600.04 51.361 1601.79 50.557C1603.53 49.7083 1605.47 49.284 1607.62 49.284C1611.23 49.284 1614.03 50.356 1615.99 52.5C1618 54.644 1619.01 58.1727 1619.01 63.086V86H1609.29V63.019C1609.29 60.8303 1608.82 59.3117 1607.88 58.463C1606.99 57.6143 1605.56 57.19 1603.6 57.19C1600.87 57.19 1598.86 58.3067 1597.57 60.54V86H1587.85V49.954ZM1644.65 61.947C1644.65 60.205 1644.2 58.8427 1643.31 57.86C1642.41 56.8773 1641.1 56.386 1639.35 56.386C1637.75 56.386 1636.5 56.788 1635.6 57.592C1634.71 58.3513 1634.26 59.401 1634.26 60.741H1624.55C1624.55 58.6417 1625.17 56.721 1626.42 54.979C1627.72 53.237 1629.53 51.8523 1631.85 50.825C1634.17 49.7977 1636.85 49.284 1639.89 49.284C1644.22 49.284 1647.71 50.3783 1650.34 52.567C1653.02 54.7557 1654.36 57.9047 1654.36 62.014V77.223C1654.36 79.1883 1654.47 80.7963 1654.7 82.047C1654.96 83.2977 1655.34 84.4367 1655.84 85.464V86H1645.99C1645.72 85.3747 1645.41 84.3027 1645.05 82.784C1642.68 85.3747 1639.67 86.67 1636 86.67C1633.68 86.67 1631.58 86.2233 1629.71 85.33C1627.87 84.392 1626.42 83.0967 1625.35 81.444C1624.28 79.7913 1623.74 77.9377 1623.74 75.883C1623.74 72.0417 1625.15 69.116 1627.96 67.106C1630.82 65.0513 1634.98 64.024 1640.43 64.024H1644.65V61.947ZM1638.15 79.3C1639.62 79.3 1640.92 78.965 1642.03 78.295C1643.2 77.5803 1644.07 76.7317 1644.65 75.749V69.652H1640.76C1638.3 69.652 1636.47 70.1657 1635.27 71.193C1634.06 72.1757 1633.46 73.4933 1633.46 75.146C1633.46 76.352 1633.88 77.357 1634.73 78.161C1635.58 78.9203 1636.72 79.3 1638.15 79.3ZM1678.97 86H1669.65L1657.46 49.954H1667.64L1674.28 74.007L1680.91 49.954H1691.03L1678.97 86ZM1709.22 86.67C1705.6 86.67 1702.43 85.9107 1699.7 84.392C1697.02 82.8287 1694.95 80.7293 1693.47 78.094C1692.04 75.414 1691.33 72.4437 1691.33 69.183C1691.33 65.163 1692.02 61.6567 1693.41 58.664C1694.79 55.6713 1696.76 53.371 1699.3 51.763C1701.85 50.1103 1704.82 49.284 1708.21 49.284C1713.3 49.284 1717.21 50.8697 1719.94 54.041C1722.71 57.2123 1724.09 61.5227 1724.09 66.972V71.126H1701.18C1701.54 73.4933 1702.47 75.3917 1703.99 76.821C1705.51 78.2057 1707.48 78.898 1709.89 78.898C1711.63 78.898 1713.24 78.563 1714.71 77.893C1716.23 77.1783 1717.53 76.151 1718.6 74.811L1723.29 80.104C1721.99 81.9353 1720.14 83.4987 1717.73 84.794C1715.31 86.0447 1712.48 86.67 1709.22 86.67ZM1708.15 57.123C1704.26 57.123 1701.96 59.602 1701.24 64.56H1714.51V63.689C1714.47 61.679 1713.91 60.0933 1712.84 58.932C1711.81 57.726 1710.25 57.123 1708.15 57.123ZM1728.73 49.954H1737.84L1738.17 54.309C1740 50.959 1742.68 49.284 1746.21 49.284C1747.55 49.284 1748.51 49.418 1749.09 49.686L1748.96 58.999C1748.42 58.9543 1747.84 58.9097 1747.22 58.865C1746.64 58.7757 1746.08 58.731 1745.54 58.731C1741.88 58.731 1739.51 59.9593 1738.44 62.416V86H1728.73V49.954ZM1748.62 81.243C1748.62 79.7243 1749.11 78.4737 1750.09 77.491C1751.12 76.5083 1752.46 76.017 1754.11 76.017C1755.72 76.017 1757.01 76.5083 1758 77.491C1759.02 78.4737 1759.54 79.7243 1759.54 81.243C1759.54 82.717 1759.02 83.9453 1758 84.928C1757.01 85.866 1755.72 86.335 1754.11 86.335C1752.46 86.335 1751.12 85.866 1750.09 84.928C1749.11 83.9453 1748.62 82.717 1748.62 81.243ZM1780.7 78.898C1782.48 78.898 1783.91 78.4067 1784.98 77.424C1786.1 76.3967 1786.7 75.079 1786.79 73.471H1795.91C1795.91 75.9723 1795.24 78.228 1793.9 80.238C1792.56 82.248 1790.75 83.8337 1788.47 84.995C1786.19 86.1117 1783.69 86.67 1780.96 86.67C1777.35 86.67 1774.29 85.8883 1771.79 84.325C1769.28 82.717 1767.41 80.5507 1766.16 77.826C1764.91 75.1013 1764.28 71.997 1764.28 68.513V67.508C1764.28 64.024 1764.91 60.9197 1766.16 58.195C1767.41 55.4257 1769.28 53.2593 1771.79 51.696C1774.29 50.088 1777.32 49.284 1780.9 49.284C1783.85 49.284 1786.44 49.8647 1788.67 51.026C1790.95 52.1427 1792.71 53.773 1793.96 55.917C1795.26 58.0163 1795.91 60.4953 1795.91 63.354H1786.79C1786.7 61.5227 1786.12 60.0263 1785.05 58.865C1784.02 57.7037 1782.55 57.123 1780.63 57.123C1778.13 57.123 1776.39 58.0833 1775.4 60.004C1774.42 61.88 1773.93 64.3813 1773.93 67.508V68.513C1773.93 71.6843 1774.4 74.208 1775.34 76.084C1776.32 77.96 1778.11 78.898 1780.7 78.898ZM1800.21 67.642C1800.21 64.1133 1800.88 60.9643 1802.22 58.195C1803.56 55.4257 1805.5 53.2593 1808.04 51.696C1810.63 50.088 1813.72 49.284 1817.29 49.284C1820.82 49.284 1823.88 50.088 1826.47 51.696C1829.06 53.2593 1831.03 55.4257 1832.37 58.195C1833.71 60.9643 1834.38 64.1133 1834.38 67.642V68.379C1834.38 71.9077 1833.71 75.0567 1832.37 77.826C1831.03 80.5507 1829.06 82.717 1826.47 84.325C1823.92 85.8883 1820.89 86.67 1817.36 86.67C1813.78 86.67 1810.7 85.8883 1808.11 84.325C1805.52 82.7617 1803.56 80.5953 1802.22 77.826C1800.88 75.0567 1800.21 71.9077 1800.21 68.379V67.642ZM1809.92 68.379C1809.92 71.5503 1810.52 74.0963 1811.73 76.017C1812.94 77.9377 1814.81 78.898 1817.36 78.898C1819.86 78.898 1821.69 77.9377 1822.85 76.017C1824.06 74.0963 1824.66 71.5503 1824.66 68.379V67.642C1824.66 64.56 1824.06 62.0363 1822.85 60.071C1821.65 58.1057 1819.79 57.123 1817.29 57.123C1814.79 57.123 1812.94 58.1057 1811.73 60.071C1810.52 62.0363 1809.92 64.56 1809.92 67.642V68.379ZM1839.17 49.954H1848.28L1848.62 53.907C1851.21 50.825 1854.65 49.284 1858.94 49.284C1861.12 49.284 1863.04 49.7307 1864.7 50.624C1866.35 51.5173 1867.62 52.902 1868.52 54.778C1870.97 51.1153 1874.57 49.284 1879.3 49.284C1883.01 49.284 1885.85 50.356 1887.81 52.5C1889.82 54.644 1890.83 58.1503 1890.83 63.019V86H1881.11V62.952C1881.11 61.076 1880.64 59.6467 1879.71 58.664C1878.77 57.6813 1877.45 57.19 1875.75 57.19C1874.19 57.19 1872.8 57.6813 1871.6 58.664C1870.44 59.602 1869.86 60.7633 1869.86 62.148V86H1860.14V62.483C1860.14 60.741 1859.67 59.4233 1858.73 58.53C1857.8 57.6367 1856.46 57.19 1854.71 57.19C1853.24 57.19 1851.9 57.659 1850.69 58.597C1849.49 59.535 1848.89 60.7187 1848.89 62.148V86H1839.17V49.954Z" fill="#C9CAD6"/>
<circle cx="62.5" cy="66.5" r="37.5" fill="#C9CAD6"/>
<ellipse cx="47.898" cy="52.5621" rx="8.29646" ry="19.5796" fill="white"/>
<ellipse cx="75.1104" cy="52.5621" rx="8.29646" ry="19.5796" fill="white"/>
<path d="M83.4071 54.2214C83.4071 59.7198 81.4756 64.1771 79.093 64.1771C76.7103 64.1771 74.7788 59.7198 74.7788 54.2214C74.7788 48.723 76.7103 44.2656 79.093 44.2656C81.4756 44.2656 83.4071 48.723 83.4071 54.2214Z" fill="#262B5B"/>
<path d="M56.1946 54.2212C56.1946 59.7196 54.4116 64.177 52.2123 64.177C50.0129 64.177 48.23 59.7196 48.23 54.2212C48.23 48.7228 50.0129 44.2655 52.2123 44.2655C54.4116 44.2655 56.1946 48.7228 56.1946 54.2212Z" fill="#262B5B"/>
<path fill-rule="evenodd" clip-rule="evenodd" d="M636.236 49.6257C635.692 50.1918 634.738 49.9395 634.545 49.1786L631.904 38.7544C631.649 37.7485 630.22 37.7485 629.965 38.7544L627.324 49.1788C627.131 49.9397 626.177 50.192 625.633 49.6259L618.273 41.9619C617.557 41.2157 616.318 41.9155 616.587 42.9144L619.403 53.3802C619.605 54.1301 618.912 54.8138 618.165 54.6022L607.985 51.7196C606.996 51.4396 606.278 52.6547 607.001 53.3852L614.595 61.0579C615.135 61.6038 614.884 62.5297 614.142 62.7276L603.837 65.4747C602.847 65.7386 602.847 67.1434 603.837 67.4073L614.142 70.1545C614.884 70.3524 615.136 71.2783 614.595 71.8242L607.002 79.497C606.279 80.2275 606.996 81.4426 607.985 81.1626L618.164 78.2803C618.912 78.0687 619.604 78.7524 619.402 79.5023L616.586 89.9682C616.317 90.9671 617.556 91.6668 618.273 90.9207L625.633 83.2561C626.177 82.6899 627.131 82.9422 627.324 83.7031L629.965 94.1287C630.22 95.1346 631.649 95.1346 631.904 94.1287L634.545 83.7041C634.738 82.9432 635.692 82.6909 636.236 83.257L643.596 90.9213C644.312 91.6675 645.552 90.9677 645.283 89.9688L642.466 79.5022C642.264 78.7523 642.957 78.0686 643.704 78.2802L653.884 81.1626C654.873 81.4427 655.59 80.2276 654.867 79.497L647.274 71.8241C646.733 71.2782 646.985 70.3523 647.727 70.1544L658.032 67.4074C659.021 67.1435 659.021 65.7387 658.032 65.4748L647.727 62.7278C646.985 62.53 646.734 61.6041 647.274 61.0582L654.867 53.3855C655.59 52.6549 654.873 51.4398 653.884 51.7199L643.704 54.6025C642.957 54.814 642.264 54.1303 642.466 53.3804L645.282 42.9139C645.551 41.915 644.312 41.2153 643.596 41.9614L636.236 49.6257Z" fill="white"/>
<rect x="1132" width="47" height="44" fill="white" fill-opacity="0.35"/>
<rect x="1179" y="44" width="47" height="44" fill="white" fill-opacity="0.35"/>
<rect x="1226" y="87" width="47" height="44" fill="white" fill-opacity="0.35"/>
<rect x="1274" y="44" width="47" height="44" fill="white" fill-opacity="0.35"/>
<rect x="1132" y="87" width="47" height="44" fill="white" fill-opacity="0.35"/>
<rect x="1226" width="47" height="44" fill="white" fill-opacity="0.35"/>
<rect x="1922" width="204" height="131" fill="#262B5B"/>
<path d="M2092.67 66C2092.67 60.109 2087.89 55.3333 2082 55.3333C2076.11 55.3333 2071.33 60.109 2071.33 66C2071.33 71.891 2076.11 76.6667 2082 76.6667C2087.89 76.6667 2092.67 71.891 2092.67 66ZM1963.59 64.5858C1962.8 65.3668 1962.8 66.6332 1963.59 67.4142L1976.31 80.1421C1977.09 80.9232 1978.36 80.9232 1979.14 80.1421C1979.92 79.3611 1979.92 78.0947 1979.14 77.3137L1967.83 66L1979.14 54.6863C1979.92 53.9052 1979.92 52.6389 1979.14 51.8579C1978.36 51.0768 1977.09 51.0768 1976.31 51.8579L1963.59 64.5858ZM2082 64L1965 64L1965 68L2082 68L2082 64Z" fill="white"/>
</svg>
