<svg width="2126" height="116" viewBox="0 0 2126 116" fill="none" xmlns="http://www.w3.org/2000/svg">
<rect x="245" width="635" height="116" fill="#9395AD"/>
<rect x="1006" width="370" height="116" fill="#9395AD"/>
<rect x="880" width="126" height="116" fill="#C9CAD6"/>
<rect x="1514" width="533" height="116" fill="#262B5B"/>
<rect x="1376" width="138" height="116" fill="#6E7292"/>
<rect width="245" height="116" fill="#262B5B"/>
<path d="M1048.03 55.7L1057.48 20.375H1064.68L1073.9 55.625L1075.4 62.225L1076.6 55.025L1084.1 20.375H1092.58L1079.98 74H1071.8L1061.9 37.4L1061.15 33.425L1060.18 37.475L1050.05 74H1041.95L1029.35 20.375H1037.83L1045.4 55.25L1046.53 62.15L1048.03 55.7ZM1111.55 74.75C1107.8 74.75 1104.5 73.925 1101.65 72.275C1098.8 70.575 1096.6 68.275 1095.05 65.375C1093.5 62.425 1092.73 59.1 1092.73 55.4C1092.73 50.85 1093.53 46.925 1095.13 43.625C1096.73 40.275 1098.88 37.75 1101.58 36.05C1104.28 34.3 1107.28 33.425 1110.58 33.425C1116.13 33.425 1120.3 35.2 1123.1 38.75C1125.95 42.3 1127.38 47.025 1127.38 52.925V56.525H1100.98C1101.18 59.925 1102.25 62.725 1104.2 64.925C1106.2 67.125 1108.8 68.225 1112 68.225C1116.15 68.225 1119.55 66.5 1122.2 63.05L1126.7 67.175C1125.25 69.375 1123.28 71.2 1120.78 72.65C1118.28 74.05 1115.2 74.75 1111.55 74.75ZM1110.5 39.95C1108 39.95 1105.93 40.875 1104.28 42.725C1102.63 44.525 1101.58 47.075 1101.13 50.375H1119.28V49.7C1119.13 46.9 1118.35 44.575 1116.95 42.725C1115.55 40.875 1113.4 39.95 1110.5 39.95ZM1168.29 54.5C1168.29 60.55 1166.94 65.45 1164.24 69.2C1161.54 72.9 1157.74 74.75 1152.84 74.75C1147.99 74.75 1144.24 73 1141.59 69.5L1141.21 74H1133.79V20.375H1141.96V38.15C1144.56 35 1148.16 33.425 1152.76 33.425C1157.71 33.425 1161.54 35.275 1164.24 38.975C1166.94 42.625 1168.29 47.525 1168.29 53.675V54.5ZM1160.11 53.675C1160.11 49.625 1159.36 46.375 1157.86 43.925C1156.41 41.425 1154.01 40.175 1150.66 40.175C1148.56 40.175 1146.79 40.675 1145.34 41.675C1143.89 42.625 1142.76 43.925 1141.96 45.575V62.45C1143.76 66.15 1146.69 68 1150.74 68C1153.99 68 1156.36 66.775 1157.86 64.325C1159.36 61.825 1160.11 58.55 1160.11 54.5V53.675Z" fill="#C9CAD6"/>
<path d="M1189.93 104H1186.08V74.849H1196.82C1198.98 74.849 1200.82 75.2317 1202.35 75.997C1203.91 76.735 1205.09 77.7737 1205.88 79.113C1206.67 80.4523 1207.07 81.9967 1207.07 83.746C1207.07 86.5613 1206.18 88.7343 1204.4 90.265C1202.63 91.7957 1200.1 92.561 1196.82 92.561H1189.93V104ZM1189.93 89.445H1196.82C1198.98 89.445 1200.58 88.9393 1201.61 87.928C1202.65 86.8893 1203.17 85.509 1203.17 83.787C1203.17 82.147 1202.64 80.7803 1201.57 79.687C1200.51 78.5663 1198.92 78.006 1196.82 78.006H1189.93V89.445ZM1227.7 104H1224.13L1224.05 101.868C1222.63 103.563 1220.52 104.41 1217.74 104.41C1215.5 104.41 1213.75 103.754 1212.49 102.442C1211.23 101.13 1210.6 99.08 1210.6 96.292V82.352H1214.37V96.333C1214.37 98.137 1214.74 99.4217 1215.48 100.187C1216.22 100.925 1217.16 101.294 1218.31 101.294C1221.13 101.294 1223.01 100.242 1223.97 98.137V82.352H1227.7V104ZM1250.99 93.422C1250.99 95.554 1250.67 97.4537 1250.01 99.121C1249.35 100.761 1248.38 102.059 1247.1 103.016C1245.84 103.945 1244.34 104.41 1242.59 104.41C1239.83 104.41 1237.71 103.44 1236.23 101.499L1236.07 104H1232.63V74.849H1236.4V84.648C1237.82 82.844 1239.87 81.942 1242.55 81.942C1245.2 81.942 1247.26 82.9397 1248.74 84.935C1250.24 86.9303 1250.99 89.609 1250.99 92.971V93.422ZM1247.26 92.971C1247.26 90.6203 1246.81 88.7207 1245.91 87.272C1245.01 85.796 1243.57 85.058 1241.61 85.058C1240.35 85.058 1239.28 85.3587 1238.41 85.96C1237.56 86.5613 1236.89 87.3813 1236.4 88.42V97.891C1237.55 100.16 1239.3 101.294 1241.65 101.294C1243.53 101.294 1244.94 100.57 1245.87 99.121C1246.8 97.645 1247.26 95.7453 1247.26 93.422V92.971ZM1255.34 74.849H1259.07V104H1255.34V74.849ZM1265.14 76.571C1265.14 75.9423 1265.33 75.4367 1265.71 75.054C1266.1 74.644 1266.64 74.439 1267.35 74.439C1268.04 74.439 1268.57 74.644 1268.95 75.054C1269.36 75.4367 1269.57 75.9423 1269.57 76.571C1269.57 77.1723 1269.36 77.678 1268.95 78.088C1268.57 78.4707 1268.04 78.662 1267.35 78.662C1266.64 78.662 1266.1 78.4707 1265.71 78.088C1265.33 77.678 1265.14 77.1723 1265.14 76.571ZM1265.43 82.352H1269.16V104H1265.43V82.352ZM1287.01 98.26C1287.01 97.358 1286.67 96.6063 1285.99 96.005C1285.33 95.4037 1284.02 94.898 1282.05 94.488C1279.48 93.9687 1277.53 93.2307 1276.19 92.274C1274.88 91.29 1274.22 89.9507 1274.22 88.256C1274.22 87.108 1274.55 86.0557 1275.21 85.099C1275.89 84.1423 1276.85 83.377 1278.08 82.803C1279.31 82.229 1280.7 81.942 1282.26 81.942C1283.95 81.942 1285.42 82.2427 1286.65 82.844C1287.9 83.4453 1288.86 84.2653 1289.52 85.304C1290.2 86.3153 1290.54 87.436 1290.54 88.666H1286.81C1286.81 88.0647 1286.62 87.477 1286.24 86.903C1285.88 86.329 1285.36 85.8643 1284.68 85.509C1283.99 85.1263 1283.19 84.935 1282.26 84.935C1280.84 84.935 1279.77 85.2493 1279.06 85.878C1278.35 86.5067 1277.99 87.2583 1277.99 88.133C1277.99 88.707 1278.13 89.1853 1278.4 89.568C1278.68 89.9507 1279.17 90.2923 1279.88 90.593C1280.59 90.8937 1281.62 91.1943 1282.96 91.495C1285.69 92.1237 1287.67 92.9437 1288.9 93.955C1290.13 94.939 1290.75 96.292 1290.75 98.014C1290.75 99.2713 1290.39 100.392 1289.68 101.376C1289 102.333 1288.03 103.084 1286.77 103.631C1285.51 104.15 1284.05 104.41 1282.38 104.41C1280.55 104.41 1278.95 104.082 1277.58 103.426C1276.25 102.743 1275.22 101.868 1274.51 100.802C1273.83 99.7087 1273.48 98.547 1273.48 97.317H1277.26C1277.34 98.7383 1277.87 99.777 1278.86 100.433C1279.87 101.089 1281.04 101.417 1282.38 101.417C1283.83 101.417 1284.96 101.116 1285.78 100.515C1286.6 99.9137 1287.01 99.162 1287.01 98.26ZM1294.89 74.849H1298.66V84.894C1299.42 83.9647 1300.35 83.2403 1301.45 82.721C1302.54 82.2017 1303.73 81.942 1305.01 81.942C1309.63 81.942 1311.94 84.566 1311.94 89.814V104H1308.21V89.773C1308.21 88.1057 1307.86 86.903 1307.15 86.165C1306.44 85.427 1305.36 85.058 1303.91 85.058C1302.76 85.058 1301.72 85.3723 1300.79 86.001C1299.89 86.6023 1299.18 87.436 1298.66 88.502V104H1294.89V74.849ZM1325.73 104.41C1323.76 104.41 1322.01 103.973 1320.48 103.098C1318.97 102.196 1317.81 100.952 1316.99 99.367C1316.17 97.7543 1315.76 95.9367 1315.76 93.914C1315.76 91.3993 1316.2 89.24 1317.07 87.436C1317.98 85.632 1319.14 84.2653 1320.56 83.336C1322.01 82.4067 1323.57 81.942 1325.23 81.942C1328.21 81.942 1330.44 82.9123 1331.92 84.853C1333.42 86.7663 1334.17 89.322 1334.17 92.52V94.201H1319.53C1319.59 96.251 1320.19 97.973 1321.34 99.367C1322.49 100.734 1324.02 101.417 1325.93 101.417C1327.19 101.417 1328.27 101.171 1329.17 100.679C1330.07 100.16 1330.89 99.4217 1331.63 98.465L1333.88 100.228C1332.05 103.016 1329.33 104.41 1325.73 104.41ZM1325.23 84.935C1323.76 84.935 1322.51 85.4817 1321.5 86.575C1320.52 87.6683 1319.9 89.199 1319.66 91.167H1330.44V90.921C1330.33 89.199 1329.87 87.7777 1329.05 86.657C1328.25 85.509 1326.98 84.935 1325.23 84.935ZM1337.93 82.352H1341.58L1341.66 84.812C1342.86 82.8987 1344.57 81.942 1346.78 81.942C1347.03 81.942 1347.33 81.983 1347.69 82.065C1348.04 82.1197 1348.29 82.1743 1348.42 82.229V85.632C1347.88 85.5227 1347.28 85.468 1346.62 85.468C1345.39 85.468 1344.37 85.755 1343.55 86.329C1342.73 86.8757 1342.11 87.641 1341.7 88.625V104H1337.93V82.352Z" fill="#C9CAD6"/>
<path fill-rule="evenodd" clip-rule="evenodd" d="M942.609 26C939.432 26 936.856 28.5753 936.856 31.7522V45.8252L925.564 35.5191C923.318 33.4688 919.676 33.4688 917.43 35.5191C915.183 37.5694 915.183 40.8935 917.43 42.9437L928.722 53.2499H912.25C909.351 53.2499 907 55.6004 907 58.4999C907 61.3994 909.351 63.7499 912.25 63.7499H928.722L917.43 74.0564C915.183 76.1066 915.183 79.4307 917.43 81.481C919.676 83.5312 923.318 83.5312 925.564 81.481L936.856 71.1748V85.2478C936.856 88.4247 939.432 91 942.609 91C945.785 91 948.361 88.4247 948.361 85.2478V71.1744L959.653 81.481C961.9 83.5313 965.542 83.5313 967.788 81.481C970.034 79.4308 970.034 76.1067 967.788 74.0564L956.496 63.7499H972.967C975.867 63.7499 978.217 61.3994 978.217 58.4999C978.217 55.6004 975.867 53.2499 972.967 53.2499H956.496L967.788 42.9437C970.034 40.8934 970.034 37.5693 967.788 35.519C965.541 33.4688 961.899 33.4688 959.653 35.519L948.361 45.8256V31.7522C948.361 28.5753 945.785 26 942.609 26Z" fill="#5C6084"/>
<path d="M50 55.5C48.6193 55.5 47.5 56.6193 47.5 58C47.5 59.3807 48.6193 60.5 50 60.5V55.5ZM196.768 59.7678C197.744 58.7915 197.744 57.2085 196.768 56.2322L180.858 40.3223C179.882 39.346 178.299 39.346 177.322 40.3223C176.346 41.2986 176.346 42.8816 177.322 43.8579L191.464 58L177.322 72.1421C176.346 73.1184 176.346 74.7014 177.322 75.6777C178.299 76.654 179.882 76.654 180.858 75.6777L196.768 59.7678ZM50 60.5H195V55.5H50V60.5Z" fill="white"/>
<path d="M1612.13 72.892C1611.87 77.792 1610.53 82.1367 1608.11 85.926C1605.76 89.7153 1602.43 92.688 1598.12 94.844C1593.87 96.9347 1588.84 97.98 1583.03 97.98C1576.82 97.98 1571.43 96.5753 1566.86 93.766C1562.35 90.9567 1558.89 86.9713 1556.47 81.81C1554.12 76.5833 1552.94 70.4093 1552.94 63.288V59.368C1552.94 52.312 1554.18 46.1707 1556.66 40.944C1559.15 35.7173 1562.64 31.6993 1567.15 28.89C1571.72 26.0807 1577.02 24.676 1583.03 24.676C1591.85 24.676 1598.74 27.028 1603.7 31.732C1608.67 36.436 1611.54 42.6427 1612.33 50.352H1595.77C1595.5 46.1707 1594.43 43.1 1592.53 41.14C1590.64 39.18 1587.47 38.2 1583.03 38.2C1578.45 38.2 1575.09 39.866 1572.93 43.198C1570.78 46.53 1569.7 51.8873 1569.7 59.27V63.288C1569.7 70.8013 1570.71 76.224 1572.74 79.556C1574.76 82.8227 1578.19 84.456 1583.03 84.456C1587.21 84.456 1590.31 83.5087 1592.34 81.614C1594.36 79.7193 1595.47 76.812 1595.67 72.892H1612.13ZM1647.63 25.656C1656.06 25.656 1662.63 27.518 1667.33 31.242C1672.1 34.966 1674.49 40.3233 1674.49 47.314C1674.49 52.41 1673.41 56.5587 1671.25 59.76C1669.16 62.896 1666.06 65.444 1661.94 67.404L1676.94 96.314V97H1659.2L1646.75 71.716H1636.66V97H1620.29V25.656H1647.63ZM1636.66 58.388H1647.44C1650.9 58.388 1653.51 57.5713 1655.28 55.938C1657.04 54.2393 1657.92 51.8547 1657.92 48.784C1657.92 45.7133 1657.04 43.3287 1655.28 41.63C1653.58 39.866 1651.03 38.984 1647.63 38.984H1636.66V58.388ZM1683.95 25.656H1732.76V38.984H1700.52V53.88H1727.76V66.718H1700.52V83.77H1732.66V97H1683.95V25.656ZM1764.38 25.656H1779.67L1806.13 97H1788.58L1784.17 83.476H1759.77L1755.46 97H1737.82L1764.38 25.656ZM1772.02 45.844L1764.18 70.246H1779.76L1772.02 45.844ZM1820.69 38.984H1799.62V25.656H1858.51V38.984H1837.25V97H1820.69V38.984ZM1866.46 25.656H1882.92V97H1866.46V25.656ZM1930.95 97H1913.6L1889.1 25.656H1907.52L1922.32 77.302L1937.02 25.656H1955.35L1930.95 97ZM1960.46 25.656H2009.26V38.984H1977.02V53.88H2004.27V66.718H1977.02V83.77H2009.17V97H1960.46V25.656Z" fill="white"/>
<path d="M328.965 47.68L317.72 64.58L329.29 82H322.465L314.6 69.065L306.67 82H299.78L311.35 64.58L300.105 47.68H306.995L314.47 60.225L322.01 47.68H328.965ZM354.41 58.47C354.41 56.39 353.782 54.7433 352.525 53.53C351.312 52.3167 349.535 51.71 347.195 51.71C345.029 51.71 343.252 52.2517 341.865 53.335C340.522 54.4183 339.85 55.6967 339.85 57.17H333.87C333.87 55.48 334.434 53.855 335.56 52.295C336.73 50.735 338.355 49.4783 340.435 48.525C342.515 47.5283 344.877 47.03 347.52 47.03C351.42 47.03 354.519 48.0267 356.815 50.02C359.155 51.97 360.325 54.8083 360.325 58.535V74.525C360.325 75.695 360.434 76.93 360.65 78.23C360.867 79.53 361.17 80.6133 361.56 81.48V82H355.385C354.952 81.09 354.67 79.8983 354.54 78.425C353.327 79.6817 351.897 80.7 350.25 81.48C348.604 82.26 346.784 82.65 344.79 82.65C342.494 82.65 340.457 82.2167 338.68 81.35C336.947 80.44 335.582 79.205 334.585 77.645C333.632 76.085 333.155 74.3733 333.155 72.51C333.155 68.87 334.52 66.075 337.25 64.125C340.024 62.175 343.815 61.2 348.625 61.2H354.41V58.47ZM345.635 77.58C347.672 77.58 349.47 77.0817 351.03 76.085C352.59 75.045 353.717 73.81 354.41 72.38V65.295H349.6C346.22 65.295 343.62 65.8367 341.8 66.92C340.024 68.0033 339.135 69.585 339.135 71.665C339.135 73.3983 339.699 74.8283 340.825 75.955C341.952 77.0383 343.555 77.58 345.635 77.58ZM366.846 77.71L385.826 52.425H367.106V47.68H393.171V51.775L374.061 77.255H394.081V82H366.846V77.71ZM413.157 77.905C415.28 77.905 417.122 77.2767 418.682 76.02C420.242 74.72 421.108 73.095 421.282 71.145H426.872C426.785 73.1817 426.092 75.0883 424.792 76.865C423.535 78.5983 421.867 80.0067 419.787 81.09C417.75 82.13 415.54 82.65 413.157 82.65C409.82 82.65 407.003 81.8917 404.707 80.375C402.453 78.815 400.742 76.735 399.572 74.135C398.445 71.535 397.882 68.6533 397.882 65.49V64.19C397.882 60.9833 398.445 58.1017 399.572 55.545C400.742 52.945 402.475 50.8867 404.772 49.37C407.068 47.81 409.863 47.03 413.157 47.03C415.8 47.03 418.14 47.5717 420.177 48.655C422.213 49.7383 423.817 51.2333 424.987 53.14C426.157 55.0033 426.785 57.105 426.872 59.445H421.282C421.108 57.2783 420.285 55.4583 418.812 53.985C417.338 52.5117 415.453 51.775 413.157 51.775C409.863 51.775 407.48 52.9667 406.007 55.35C404.533 57.7333 403.797 60.68 403.797 64.19V65.49C403.797 69 404.512 71.9467 405.942 74.33C407.415 76.7133 409.82 77.905 413.157 77.905ZM446.295 82H441.81L429.33 47.68H435.375L444.085 73.94L452.535 47.68H458.58L446.295 82ZM519.208 56.585C519.208 59.705 518.753 62.695 517.843 65.555C516.933 68.415 515.417 70.7983 513.293 72.705C511.213 74.6117 508.505 75.565 505.168 75.565C503.218 75.565 501.55 75.1317 500.163 74.265C498.777 73.3983 497.758 72.1633 497.108 70.56C495.895 72.2067 494.53 73.4633 493.013 74.33C491.497 75.1533 489.937 75.565 488.333 75.565C485.343 75.565 483.025 74.5033 481.378 72.38C479.732 70.2133 478.908 67.31 478.908 63.67C478.908 63.15 478.952 62.3267 479.038 61.2C479.342 57.5167 480.208 54.2667 481.638 51.45C483.068 48.6333 484.845 46.4667 486.968 44.95C489.092 43.39 491.323 42.61 493.663 42.61C495.917 42.61 497.715 42.9133 499.058 43.52C500.445 44.0833 502.005 44.9717 503.738 46.185L502.048 63.995L501.918 65.88C501.918 69.2167 503.24 70.885 505.883 70.885C508.397 70.885 510.347 69.7367 511.733 67.44C513.12 65.1433 513.922 62.1533 514.138 58.47C514.182 57.9933 514.203 57.2567 514.203 56.26C514.203 51.8833 513.423 48.005 511.863 44.625C510.347 41.2017 508.007 38.515 504.843 36.565C501.68 34.615 497.78 33.64 493.143 33.64C488.593 33.64 484.607 34.7017 481.183 36.825C477.803 38.9483 475.16 41.96 473.253 45.86C471.347 49.7167 470.263 54.2017 470.003 59.315C469.743 63.9517 470.61 68.1983 472.603 72.055C474.597 75.9117 477.24 78.945 480.533 81.155C483.87 83.365 487.315 84.47 490.868 84.47C492.905 84.47 494.942 84.2317 496.978 83.755C499.058 83.2783 500.77 82.65 502.113 81.87L503.673 86.225C502.113 87.2217 500.142 87.98 497.758 88.5C495.375 89.02 493.035 89.28 490.738 89.28C486.188 89.28 481.833 87.9583 477.673 85.315C473.557 82.715 470.263 79.14 467.793 74.59C465.323 69.9967 464.218 64.905 464.478 59.315C464.738 53.465 466.082 48.2 468.508 43.52C470.978 38.84 474.337 35.1783 478.583 32.535C482.873 29.8917 487.77 28.57 493.273 28.57C498.647 28.57 503.283 29.805 507.183 32.275C511.083 34.745 514.052 38.125 516.088 42.415C518.168 46.6617 519.208 51.385 519.208 56.585ZM485.018 61.2C484.932 62.24 484.888 62.9767 484.888 63.41C484.888 67.8733 486.535 70.105 489.828 70.105C490.998 70.105 492.168 69.6283 493.338 68.675C494.552 67.6783 495.548 66.1833 496.328 64.19L497.953 48.33C496.783 47.81 495.548 47.55 494.248 47.55C491.822 47.55 489.785 48.72 488.138 51.06C486.492 53.4 485.452 56.78 485.018 61.2ZM528.178 47.68H533.833L534.028 51.905C535.242 50.345 536.715 49.1533 538.448 48.33C540.225 47.4633 542.153 47.03 544.233 47.03C551.557 47.03 555.218 51.19 555.218 59.51V82H549.303V59.445C549.303 56.8017 548.74 54.895 547.613 53.725C546.487 52.555 544.775 51.97 542.478 51.97C540.658 51.97 539.012 52.4683 537.538 53.465C536.108 54.4183 534.982 55.74 534.158 57.43V82H528.178V47.68ZM583.307 58.47C583.307 56.39 582.679 54.7433 581.422 53.53C580.209 52.3167 578.432 51.71 576.092 51.71C573.925 51.71 572.149 52.2517 570.762 53.335C569.419 54.4183 568.747 55.6967 568.747 57.17H562.767C562.767 55.48 563.33 53.855 564.457 52.295C565.627 50.735 567.252 49.4783 569.332 48.525C571.412 47.5283 573.774 47.03 576.417 47.03C580.317 47.03 583.415 48.0267 585.712 50.02C588.052 51.97 589.222 54.8083 589.222 58.535V74.525C589.222 75.695 589.33 76.93 589.547 78.23C589.764 79.53 590.067 80.6133 590.457 81.48V82H584.282C583.849 81.09 583.567 79.8983 583.437 78.425C582.224 79.6817 580.794 80.7 579.147 81.48C577.5 82.26 575.68 82.65 573.687 82.65C571.39 82.65 569.354 82.2167 567.577 81.35C565.844 80.44 564.479 79.205 563.482 77.645C562.529 76.085 562.052 74.3733 562.052 72.51C562.052 68.87 563.417 66.075 566.147 64.125C568.92 62.175 572.712 61.2 577.522 61.2H583.307V58.47ZM574.532 77.58C576.569 77.58 578.367 77.0817 579.927 76.085C581.487 75.045 582.614 73.81 583.307 72.38V65.295H578.497C575.117 65.295 572.517 65.8367 570.697 66.92C568.92 68.0033 568.032 69.585 568.032 71.665C568.032 73.3983 568.595 74.8283 569.722 75.955C570.849 77.0383 572.452 77.58 574.532 77.58ZM610.953 82H606.468L593.988 47.68H600.033L608.743 73.94L617.193 47.68H623.238L610.953 82ZM640.672 82.65C637.552 82.65 634.779 81.9567 632.352 80.57C629.969 79.14 628.127 77.1683 626.827 74.655C625.527 72.0983 624.877 69.2167 624.877 66.01C624.877 62.0233 625.57 58.6 626.957 55.74C628.387 52.88 630.229 50.7133 632.482 49.24C634.779 47.7667 637.249 47.03 639.892 47.03C644.615 47.03 648.147 48.5683 650.487 51.645C652.87 54.6783 654.062 58.73 654.062 63.8V66.465H630.857C630.944 69.715 631.897 72.445 633.717 74.655C635.537 76.8217 637.964 77.905 640.997 77.905C642.99 77.905 644.702 77.515 646.132 76.735C647.562 75.9117 648.862 74.7417 650.032 73.225L653.607 76.02C650.704 80.44 646.392 82.65 640.672 82.65ZM639.892 51.775C637.552 51.775 635.58 52.6417 633.977 54.375C632.417 56.1083 631.442 58.535 631.052 61.655H648.147V61.265C647.974 58.535 647.237 56.2817 645.937 54.505C644.68 52.685 642.665 51.775 639.892 51.775ZM660.019 47.68H665.804L665.934 51.58C667.841 48.5467 670.549 47.03 674.059 47.03C674.449 47.03 674.926 47.095 675.489 47.225C676.052 47.3117 676.442 47.3983 676.659 47.485V52.88C675.792 52.7067 674.839 52.62 673.799 52.62C671.849 52.62 670.224 53.075 668.924 53.985C667.624 54.8517 666.649 56.065 665.999 57.625V82H660.019V47.68ZM677.808 78.945C677.808 77.905 678.133 77.06 678.783 76.41C679.433 75.7167 680.321 75.37 681.448 75.37C682.618 75.37 683.528 75.7167 684.178 76.41C684.828 77.06 685.153 77.905 685.153 78.945C685.153 79.9417 684.828 80.765 684.178 81.415C683.528 82.0217 682.618 82.325 681.448 82.325C680.321 82.325 679.433 82.0217 678.783 81.415C678.133 80.765 677.808 79.9417 677.808 78.945ZM706.99 77.905C709.113 77.905 710.955 77.2767 712.515 76.02C714.075 74.72 714.941 73.095 715.115 71.145H720.705C720.618 73.1817 719.925 75.0883 718.625 76.865C717.368 78.5983 715.7 80.0067 713.62 81.09C711.583 82.13 709.373 82.65 706.99 82.65C703.653 82.65 700.836 81.8917 698.54 80.375C696.286 78.815 694.575 76.735 693.405 74.135C692.278 71.535 691.715 68.6533 691.715 65.49V64.19C691.715 60.9833 692.278 58.1017 693.405 55.545C694.575 52.945 696.308 50.8867 698.605 49.37C700.901 47.81 703.696 47.03 706.99 47.03C709.633 47.03 711.973 47.5717 714.01 48.655C716.046 49.7383 717.65 51.2333 718.82 53.14C719.99 55.0033 720.618 57.105 720.705 59.445H715.115C714.941 57.2783 714.118 55.4583 712.645 53.985C711.171 52.5117 709.286 51.775 706.99 51.775C703.696 51.775 701.313 52.9667 699.84 55.35C698.366 57.7333 697.63 60.68 697.63 64.19V65.49C697.63 69 698.345 71.9467 699.775 74.33C701.248 76.7133 703.653 77.905 706.99 77.905ZM726.317 64.45C726.317 61.1567 726.945 58.1883 728.202 55.545C729.502 52.9017 731.322 50.8217 733.662 49.305C736.045 47.7883 738.797 47.03 741.917 47.03C745.08 47.03 747.832 47.7883 750.172 49.305C752.555 50.8217 754.375 52.9017 755.632 55.545C756.932 58.1883 757.582 61.1567 757.582 64.45V65.23C757.582 68.5667 756.932 71.5567 755.632 74.2C754.375 76.8 752.555 78.8583 750.172 80.375C747.832 81.8917 745.102 82.65 741.982 82.65C738.819 82.65 736.045 81.8917 733.662 80.375C731.322 78.8583 729.502 76.8 728.202 74.2C726.945 71.5567 726.317 68.5667 726.317 65.23V64.45ZM732.232 65.23C732.232 68.8267 733.077 71.8383 734.767 74.265C736.457 76.6917 738.862 77.905 741.982 77.905C745.059 77.905 747.442 76.6917 749.132 74.265C750.822 71.8383 751.667 68.8267 751.667 65.23V64.45C751.667 60.8533 750.822 57.8417 749.132 55.415C747.442 52.9883 745.037 51.775 741.917 51.775C738.84 51.775 736.457 52.9883 734.767 55.415C733.077 57.8417 732.232 60.8533 732.232 64.45V65.23ZM763.867 47.68H769.457L769.652 51.385C772.122 48.4817 775.502 47.03 779.792 47.03C784.602 47.03 787.873 48.85 789.607 52.49C790.777 50.8 792.293 49.4783 794.157 48.525C796.02 47.5283 798.143 47.03 800.527 47.03C808.197 47.03 812.032 51.1683 812.032 59.445V82H806.052V59.38C806.052 56.9533 805.402 55.1117 804.102 53.855C802.802 52.5983 801.025 51.97 798.772 51.97C796.388 51.97 794.482 52.62 793.052 53.92C791.622 55.22 790.907 56.975 790.907 59.185V82H784.992V59.38C784.992 56.9533 784.32 55.1117 782.977 53.855C781.677 52.5983 779.9 51.97 777.647 51.97C775.437 51.97 773.573 52.62 772.057 53.92C770.54 55.1767 769.782 56.9317 769.782 59.185V82H763.867V47.68Z" fill="#262B5B"/>
<path fill-rule="evenodd" clip-rule="evenodd" d="M1480.06 97.6112C1471.3 108.927 1458.83 116 1445 116C1431.17 116 1418.7 108.929 1409.94 97.6148C1401.46 108.929 1389.39 116 1376 116V0.0452127C1389.38 0.0452127 1401.45 7.10698 1409.92 18.4075C1418.68 7.08038 1431.16 0 1445 0C1458.83 0 1471.3 7.07257 1480.06 18.3888C1488.54 7.07258 1500.61 1.49012e-06 1514 0L1514 116C1500.61 116 1488.54 108.927 1480.06 97.6112Z" fill="white" fill-opacity="0.45"/>
<rect x="2047" width="79" height="116" fill="white"/>
<path d="M2086.5 38L2090.88 51.4742H2105.05L2093.58 59.8017L2097.96 73.2758L2086.5 64.9483L2075.04 73.2758L2079.42 59.8017L2067.95 51.4742H2082.12L2086.5 38Z" fill="#9395AD"/>
</svg>
